<svg id="Camada_9" data-name="Camada 9" xmlns="http://www.w3.org/2000/svg" viewBox="0 0 203.79 641.14"><defs><style>.cls-1{fill:#50690f;}.cls-2{fill:#8b9904;}.cls-3{fill:#536b0f;}.cls-4{fill:#c1caa9;}</style></defs><path class="cls-1" d="M50.45,556.16c11,8.7,21.58,18,34.05,24.77a33.14,33.14,0,0,0,10.74,3.68c1.22.19,3.64-.47,3.41,1.53-.2,1.64-2.49,1-3.89,1.08a57.87,57.87,0,0,1-33.3-8.13C49.68,572,37.87,564.83,27.12,556.37c-4.42-3.47-7.28-6.82-12.91-3.78a12.73,12.73,0,0,0-1.52,1.13,5.87,5.87,0,0,0,1.14.69c15.9,5.52,27.12,18.09,40.72,27.06,7.68,5.06,14.68,11.45,24.31,12.85.77.11,1.92.48,1.47,1.38a3.69,3.69,0,0,1-2.45,1.36c-8,1.39-15.41-.75-22.76-3.47-19.37-7.17-35.46-19.76-52.19-31.33-3.74-2.59-2.72-6.57-2-9.53C4.71,537.37,7,521.61,13.76,507c6.3-13.54,17.57-23.09,26.14-34.79.49-.68,1.27-1.81,2.35-1,.3.22,0,1.5-.22,2.19-7.58,19-16.56,37.52-21.63,57.55-1.37,5.43-5.16,10.25-7.85,15.35l-.67.56,1.19-.06c5.77-1.29,8.55-3.8,9.35-10.77,1.79-15.7,10.94-28.49,20-41,5.72-7.9,11.61-15.68,19-22.13,1-.88,2.33-2.68,3.65-1.51,1.14,1-.61,2.34-1.28,3.31-13.18,19.12-17.47,42.46-29.55,62.09-.9,1.45-.81,2.31,1.11,1.64,3.78-1.3,6.84-2.73,7.89-7.67,5.17-24.29,17.81-43.85,38.44-58a8.65,8.65,0,0,1,2.6-1.4c1.14-.3,2.46-2.06,3.44-.5.75,1.2-1.13,1.69-1.86,2.47-7.94,8.42-13.11,18.54-17.75,29a5,5,0,0,0-1.44,4c1.5-.3,1.86-1.6,2.39-2.75,3.69-5.48,7.57-10.83,11-16.45,4.46-7.26,10.81-12.42,17.74-17,.84-.56,1.89-2,2.94-.73s-.5,2.07-1.14,2.91A133.73,133.73,0,0,0,83.6,500.09c-.26.47-.51.94-.76,1.41-1,1.19-2.22,2.32-1.58,4.15l-.85.35.19.38.58-.84,2.84-4a.71.71,0,0,0,.42-.75c7.7-9.47,16-18.37,25.71-25.8,1.91-1.45,5.24-3.79,6.36-2.44,1.88,2.3-1.83,3.87-3.16,5.63a182.81,182.81,0,0,0-18.23,29.35,46.53,46.53,0,0,0-8.64,11.36c-.73,1.36-3,3.43-1.27,4.43,1.41.8,4.12-.49,5.19-2.75l5.7-12.06c8.14-12.56,20.22-20.48,32.74-27.89.77-.45,1.39-1.73,2.44-.77.15.14-.74,1.52-1.25,2.25-6.66,9.72-16,17-23.61,25.86a.58.58,0,0,0-.36.62l-.84,1.43.84-.48,1.22-.77c13.9-6.87,29.2-10.7,42.29-19.35.6-.39,2-.75,2.1-.54.74,1.08-.35,1.73-1,2.35-13.06,12.53-26.61,24.39-43.52,31.61-.73.31-1.45.65-2.17,1a9.53,9.53,0,0,0,2.4,1c10.28,1.42,20.36,4.84,31,3.16.92-.15,2.26-.61,2.44.72.08.57-1,1.64-1.81,2-2.59,1-5.23,2.34-7.95,2.66-13,1.5-25.79,1.47-37.42-5.65-3.75-2.3-6.63.23-9.84,1-.33.08-.52.68-.77,1.05.4.18.79.53,1.19.53,14.41.13,25.67,9.07,38.44,13.75,3.25,1.19,6.45,2.58,10.07,2.41,1,0,2.76-.71,2.85.9s-1.81,1.59-3,1.8c-6.94,1.22-13.85.62-20.73-.55-4.73-.8-9.43-1.74-14.15-2.61-.57-.29-1.14-.63-1.73-.87l-11.68-4.64c3.08,3.83,7.89,4.55,11.93,6.63,8.81,5.12,17.36,10.79,27.78,12.28.71.1,1.92.89,1.87,1.22-.17,1.29-1.44,1-2.33,1-12.1.25-24-1-35.33-5.52-1.83-.73-3.68-1.4-5.52-2.1-1.85-1.06-3.43-2.79-5.88-2.37l4.52,3.38c11.19,6.9,21.79,15.14,35.84,15.4.51,0,1,.51,1.53.78a6.77,6.77,0,0,1-1.34,1.07c-5.13,2.33-10.43,1-15.59.37-15.07-1.77-29.35-6.1-42.48-13.94-2.39-1.43-5-2.42-7.57-3.62l-6-3.59C46.3,554.09,48.6,554.88,50.45,556.16Zm-7.07-5.75,1,.54-.55-1c-1.32-1.68-2.76-3.28-3.93-5.06-1.47-2.24-3.14-1.07-4.78-.5a14.11,14.11,0,0,0-2.07,1.09c1.2.64,2.38,1.32,3.61,1.9C38.89,548.39,41.14,549.39,43.38,550.41Zm36.48-41.87-.26-.73a6.27,6.27,0,0,0-1,1c-3.32,5.48-6.65,11-9.88,16.51a8.44,8.44,0,0,0-.54,2.73,20.88,20.88,0,0,0,2.75-.35C72.52,527.32,80.14,510.83,79.86,508.54ZM62.3,517.65l-.37-1.85a8.77,8.77,0,0,0-1.33,1.4c-3.11,5.06-6.17,10.14-9.24,15.22-.33.55-.6,1.14-.89,1.72a10.16,10.16,0,0,0,2.21,0C61.9,531.86,57.55,522,62.3,517.65ZM73.22,531.9,69,534c1,.5,2,1,3,1.5,3.12,1.49,6.24,3,9.38,4.4a8.93,8.93,0,0,0,1.8.44c0-.39.15-1,0-1.15C79.81,536.71,76.5,534.31,73.22,531.9Zm-17,5.85c-1.45.82-3.4.37-4.28,2.13,2.57.77,5.14,1.56,7.72,2.3.69.2,1.46-.06.82-.85C59.32,539.88,58.36,538.06,56.24,537.75Z" transform="translate(0 -0.84)"/><path class="cls-1" d="M60.1,611.16c-5.81-.9-10.86-3.82-16.14-6.11A273,273,0,0,1,3.38,583.34C1.34,582-.8,568.14.89,566.77c1.52-1.23,2.74.46,3.86,1.18A276.78,276.78,0,0,1,34,590c8.67,7.31,16.46,15.84,28.26,18.28.45.09,1.18,1,1.08,1.25A2.86,2.86,0,0,1,60.1,611.16Z" transform="translate(0 -0.84)"/><path class="cls-1" d="M.47,599l.74-7.68c2.78.4,4.35,2.69,6.38,4.22,8.29,6.25,16.18,13.05,25.47,17.91a33,33,0,0,0,12.61,4c1,.08,2.66-1.09,3,.5s-1.53,2.11-2.7,2.15c-3.61.13-7.33.48-10.82-.2a120.12,120.12,0,0,1-26.8-8.46C2.63,608.84-1.43,606.05.47,599Z" transform="translate(0 -0.84)"/><path class="cls-1" d="M.71,511.91c-1.55-12.09,0-23.37,8.67-32.75,2.46-2.65,4.83-5.41,7.48-7.85,1.08-1,3-2.92,4.12-1.6,1,1.16-1.72,1.81-2.43,3-6.4,10.87-8.63,23.13-11.74,35.08-1.53,5.91-2.47,12-3.81,17.93-.41,1.83-.18,4-1.94,5.32-.12-1.76-.32-3.51-.34-5.27C.68,521.16.71,516.54.71,511.91Z" transform="translate(0 -0.84)"/><path class="cls-1" d="M16.61,634.23c-4.57-1.1-9.17-2.31-13.82-3.29-2.36-.5-2.2-2.15-2-3.76.18-1.86-.9-4,.74-5.44.29-.26,2.26,1.45,3.47,2.22,4.14,2.65,8.27,5.3,12.43,7.92.76.47,2.24.34,1.88,1.65C19.15,634,17.64,634,16.61,634.23Z" transform="translate(0 -0.84)"/><path class="cls-1" d="M1.21,641.09a2.78,2.78,0,0,1,.43.53.47.47,0,0,1-.14.36,2.15,2.15,0,0,1-.54-.14Z" transform="translate(0 -0.84)"/><path class="cls-2" d="M0,170.8V83.58A32.92,32.92,0,0,1,16.53,87.4c8.91,4.64,17,10.53,25.06,16.52,4.28,3.18,8.66,6,14.42,3.55,1.42-.6,2.18.23,1.25,1.79l-8,2.46,8,1.37c8.44,4.58,22.62,23.09,22.88,30.81-2.47-4.23-4.92-7.45-9.22-8.4-10.12-2.22-20.3-4.08-30.72-3.16-4.45.39-8.94.95-13.28,4,3.18,2.27,6.3,2.32,9.31,2.27,7.85-.13,15.68-1.22,23.55-.54,13.23,1.16,22.51,11.13,23.22,24.35.42,7.8-1.92,15-3.92,22.26C76.53,194.16,81.37,203,90.72,206c3.28,1.06,6.61,2,9.92,3-4.6.55-9.21-.74-13.44,1.17-5.68,2.57-11.46,5.12-16.65,8.51-10.36,6.75-12.08,6.46-20.18-4.47-.49-.66-.88-1.39-1.36-2.06-6-8.29-9.34-18.07-14.34-26.92-1.34-2.37-3-5.88-5.82-5-3.55,1.07-2.5,5.22-1.82,7.85,2.82,10.94,7.45,21.12,15.28,29.42,5.56,5.89,11.8,11,21,10.23a138.49,138.49,0,0,1-16.56,2.59c-11.66,1.27-20.28-2.84-26-13.57-4.61-8.66-7.49-17.8-9.84-27.2-1.54-6.18-2.24-12.59-5.75-18.18C3.47,168.67,2,168.57,0,170.8Zm42,4.09a1.23,1.23,0,0,0-.62-.61c-4.33-4.54-8.57-9.19-14-12.32L26.42,163,40.3,175l1,1c1.24,1.48,2.39,3.12,5,3.42C45.23,177,43.49,176.05,42,174.89Zm.87-62.84c-1.59-2.47-3.9-2-5.64-2.3-10.29-1.7-19.88-.54-27,8.29C9.42,119,8,120,9,121.36c.83,1.11,2.13.23,3.09-.26C21.65,116.26,32,114,42.87,112.05Zm29.24,86.71c-2.93-2.32-5.41-5.44-9.38-6A19.8,19.8,0,0,0,72.11,198.76Z" transform="translate(0 -0.84)"/><path class="cls-2" d="M0,184.68c2.22,2.95,2.33,6.65,3.33,10a156.83,156.83,0,0,0,16.58,37c-7.33.38-13.4-2.88-19.91-3.35Z" transform="translate(0 -0.84)"/><path class="cls-3" d="M86.23,188.85c-21.4-45.09-9.69-94.72-19.35-141.41-.07-.33-.1-.66-.18-1-2.56-9.9-3-21.15-15.48-24.84C53.86,29,57.07,36.23,59,43.79c10.14,39,13.18,77.62-8.33,114.37a31.85,31.85,0,0,1-2.27,3,14.86,14.86,0,0,1,.68-3.45c21.67-48.83,2.24-95-9.64-141.48-.55-2.18-6.09-3.09-9.31-4.6a50.45,50.45,0,0,0,2.68,6.71c23,40.5,22.18,84.12,16.8,128.32-.09.74-.9,1.4-1.37,2.09a21.21,21.21,0,0,1-.39-2.72C47.56,98.54,34.51,54.11,15.12,11.38c-1.5-3.29-8.68-4-13.22-5.92C2.73,8.25,3.58,11,4.41,13.82,15.49,50.74,14.47,87.17,0,123.06V1.83l3-1H79.41L117.17,18.7l0,1.91C88.43,9.73,58.84,3.79,28.05,4.64a10.43,10.43,0,0,0-2.61.8c.93.47,1.83,1.28,2.78,1.35,44.69,3,83.23,23.32,122,43.09a9.36,9.36,0,0,1,2,1.79,5.89,5.89,0,0,1-2.16.26c-4-1.1-7.91-2.33-11.85-3.51l-22-9.78-5.62-2.51Q82.32,26.32,54.13,16.58c-.86-.3-2,.22-3,.36.68.55,1.27,1.36,2,1.62q28,9.57,56.05,19L114.85,40,138,50.5l34.94,19.79c-.09.68-.17,1.37-.26,2.06Q125.54,53.17,78.39,34c-.45-.18-1.19.37-1.79.58C79.37,37.13,81.72,40.88,85,42,122,54.34,155.39,73.47,186.46,96.87a26.17,26.17,0,0,1,2.72,2.75,5.53,5.53,0,0,1-2.06-.16q-45.36-23.82-90.7-47.72l-2.61-.52,2.37,2.41c35.06,20.72,67.65,45.87,106.62,59.58.41.14.66.73,1,1.1-1.91.29-3.91,1.11-5.7.79-21.29-3.92-40-14.18-58.85-24.16l-5.77-3.55-2.58-1,1.6,2.4,5.27,3.67q28.37,20.87,56.71,41.76c.34.25.32,1,.47,1.51-1.92,0-4.2.58-5.69-.24-11.11-6.11-22.08-12.51-33.09-18.82l-9.65-7.49-4.06-3.56-6.61-5.41,5.5,6.68,4,3.73,9.35,7.62L195,158.74l-1.45,1.18-50.44-42q-4.51-4.12-9-8.27a6.57,6.57,0,0,0-.52.58c2.73,3,5.49,6,8.24,9l49.48,57.93c-.37.55-.74,1.1-1.1,1.65l-21.25-21.12-6.51-7.48-7.95-9.89-4-4.95-4-4.84-3-2.71,1.7,3.76,4,5,3.9,5,8,9.94,5.49,6.39c9.64,13.37,19.31,26.71,28.87,40.13.63.89.5,2.31.73,3.49a11.83,11.83,0,0,1-1.75-1.45q-15.17-18.21-30.29-36.47l-18.31-24.83c-.16.23-.51.59-.45.68q8.28,12.76,16.64,25.48c.08.12.28.17.42.25L192.53,218l-1.42,1a144.6,144.6,0,0,1-39.34-52.12l-.81-1.25-.3,1.45c.23,31.18-8.56,61.1-12.82,91.66a11.81,11.81,0,0,1-1.2,2.78,17.23,17.23,0,0,1-.64-3.55q1-39.12,2.05-78.24l0-16.26c-.73,5.09-1.47,10.18-2.17,15.27a10.89,10.89,0,0,0,.1,2c-2,14.38-4.08,28.76-6.19,43.14a15,15,0,0,1-1.34,3.3,16,16,0,0,1-.52-3.52c1.41-17,2.91-33.93,4.33-50.9a30.86,30.86,0,0,0-.19-4.18c-.61,1.41-1.6,2.79-1.75,4.25-1.48,15-2.82,30-4.24,44.92a22.91,22.91,0,0,1-.89,3.49,13.46,13.46,0,0,1-.81-3.49c1.13-30.89,2.35-61.77,3.46-92.66.06-1.42-.65-2.86-1-4.3a9.31,9.31,0,0,0-1.1,2.53c-2.82,28.26-5.69,56.51-8.25,84.79-.3,3.3,1.15,6.77,1.78,10.16-5.2-3.55-5.09-9.1-4.83-14.31,1.34-27.25,3-54.48,4.47-81.72.18-4.69.35-9.38.48-14.07a10.74,10.74,0,0,0-1.09-.1l-1.14,14.06c-1.9,28.76-.58,58.17-17.13,83.9-.79,1.22-2.34,1.94-3.53,2.89a21.27,21.27,0,0,1,2-4.17c9.58-12,7.21-26.74,9.42-40.43.07-.48-.43-1.06-.67-1.6-.44.57-1.15,1.09-1.27,1.72-1.26,6.82-2.44,13.65-3.63,20.48l-2.1-.2-.12-11.92,0-2,.81-20.9.08-2.93q-1.44-26.28-2.87-52.56l-1.11-5.45-.66,7.37L89.7,181.34l-2.08-4.59-.12,5c.36,2.31.73,4.62,1.09,6.92Zm40.9-78.67-.52,6.76a6,6,0,0,0,1.14-.08c.17-2.26.27-4.52.38-6.78l-.78-.77Zm6.48,29-1.68,28.27,3.45-28.28-.13-5.16a6.73,6.73,0,0,0-1.17,0C133.88,135.75,133.75,137.46,133.61,139.18ZM85.12,123.75c2.3-29,.31-52.43-3.54-75.63-.66-4-5.51-7.29-8.47-10.87-.21-.25-.83-.16-1.26-.22a9.47,9.47,0,0,0,.45,2.3c8.47,17.46,8,36.49,10.57,55.11,3.12,22.16-11.44,43.93-.19,65.79a16.25,16.25,0,0,0,1.68,2.25,9.73,9.73,0,0,0,.73-2.54C85.13,146.06,85.12,132.18,85.12,123.75Zm26.26-6.42c-.8-17-1.14-28.28-2-39.47-.18-2.31-2.35-4.47-3.6-6.7-.25,1.07-.87,2.21-.69,3.21,4.94,28.39,4.59,56.88,1.63,85.42a12,12,0,0,0,.32,2.69c.47-.85,1.29-1.67,1.35-2.54C109.57,143.82,110.67,127.69,111.38,117.33Zm-6.1-47.2-.47-.78-.79.72c.21.2.4.5.64.56S105.05,70.34,105.28,70.13Zm23.89,14.59-.79.48a6.87,6.87,0,0,0,1,.94c.11.07.46-.23.7-.35Z" transform="translate(0 -0.84)"/><path class="cls-4" d="M3,.84l-3,1Z" transform="translate(0 -0.84)"/><path class="cls-3" d="M192,178.33l8.44,10.43-10-9.76Z" transform="translate(0 -0.84)"/><path class="cls-3" d="M100.27,184.65l2.1.2c-.44,4-.86,8.05-1.36,12.07,0,.15-.85.19-1.3.28Q100,190.93,100.27,184.65Z" transform="translate(0 -0.84)"/><path class="cls-3" d="M195.5,220.29c-.72.38-1.1.75-1.36.68a1.55,1.55,0,0,1-1-.81c-.09-.24.33-.66.52-1Z" transform="translate(0 -0.84)"/><path class="cls-3" d="M192.53,218l.44,1.48-1.86-.5Z" transform="translate(0 -0.84)"/><path class="cls-3" d="M190.39,179l-.21-.19c.36-.55.73-1.1,1.1-1.65.22.39.45.78.68,1.17Z" transform="translate(0 -0.84)"/><path class="cls-3" d="M104.81,69.35c.16.26.31.52.46.8-.22.19-.46.51-.61.48s-.43-.36-.64-.56" transform="translate(0 -0.84)"/><path class="cls-3" d="M129.17,84.72l.92,1.07c-.24.12-.59.42-.7.35a6.87,6.87,0,0,1-1-.94Z" transform="translate(0 -0.84)"/></svg>