<svg id="Camada_9" data-name="Camada 9" xmlns="http://www.w3.org/2000/svg" viewBox="0 0 145.64 696.01"><defs><style>.cls-1{fill:#648212;}.cls-2{fill:#64830a;}</style></defs><path class="cls-1" d="M1480.36,546.36v22.92c-9.8,11-17.12,24.34-29.66,32.91-.41.28-.4,1.53-.23,2.24.8,3.44,1.73,6.86,3,11.59,6.48-15.59,15.85-27.32,26.94-37.77v21.93c-7.18,7.48-13.64,15.71-22.25,21.74a3,3,0,0,0-1,2.51c1.1,4.69,2.41,9.33,4.13,15.79,3.94-12.6,10.86-20.83,19.11-28.09v23.92a41.35,41.35,0,0,1-10,7.17c-2.41,1.25-4.57,2.83-3.59,6.19,2.07,7,4.1,14.06,6.64,22.79,2-7.12,2.86-12.92,7-17.21v22.92c-3,1.14-3,2.12,0,8,0,11,0,11-10.92,11h-49.63l-3-1c-13-5.72-26.88-9.63-37.54-20,7.73,2.78,15.25,6.09,23.42,7,18,2.08,36.36.77,54.09,5.77,7,2,14.13,3.41,22.07,5.29-2.3-4.35-4.13-7.86-6-11.35-.6-1.1-1.19-2.89-2.84-1.62-5.06,3.88-10.15,1.5-15.2.28-28.09-6.78-54.18-18.1-77.71-35.05-3.27-2.35-6.33-5.14-6.5-10.57,4.73,4.61,10.28,5.67,15.59,7.44,8.08,2.71,16.5,3.34,24.79,4.8,19.86,3.5,39.31,8.14,56.44,22.85-1.73-6.24-3-10.83-4.27-15.43-.39-1.39-1.07-2.51-2.72-2.29-12.27,1.69-21.67-5.8-32.21-9.84-20.21-7.77-39.42-17.21-55.88-31.56-6.55-5.72-12.75-11.84-19.12-17.78,5.5,1.54,10,4.28,14.55,6.78,17.73,9.67,37.59,13.41,56.32,20.29l2.65,1c10.29,5.82,22,9.38,29.63,19.66a120,120,0,0,0-3.64-14.07c-.38-1.21-.54-3.21-2.17-2.76-8.77,2.42-15.76-3.81-23.81-4.7l-1.37-.6a24.61,24.61,0,0,0-4-2c-21.22-6.31-38.73-19.1-56-32.35-4.5-3.45-8.48-7.51-9.93-13.38,2.72,3.38,6.45,5.14,10.1,7,12.43,6.37,25.64,10.75,39.1,14.1a100.8,100.8,0,0,1,40.74,20.72c1.06.88,2.24,1.6,3.73,2.66-2.71-16.84-2.7-17.17-18-20.31-29.85-6.11-51.86-24.33-71.68-46.07-.45-.5-.61-1.26-2-4.28,27.42,18.12,57.28,25.94,83.27,41.88-1.54-6.25-2.32-13-11.8-12.25-2.59.21-5.43-1.31-8-2.44-22.74-10-40.55-26.45-57.1-44.49-1.39-1.51-3.17-3.21-2.78-6.62,21.82,18.87,50,25.14,73.51,44.18-2.63-7-2.28-12.31-8.86-14.21-26.7-7.7-47.51-23.32-61.57-47.62a12.58,12.58,0,0,1-2.09-7.17c10.34,11.63,22.61,19.51,35.73,26.2l2.54.88c.22-1.77-1.23-2-2.34-2.59-6.81-5.43-13.65-10.84-20.44-16.31-7.38-6-12.34-13.67-15.86-22.56a198.79,198.79,0,0,0,33,22.18c8.21,5.82,16.38,11.69,24.65,17.43a26,26,0,0,0,4.91,2.12c.11-.75.55-1.67.27-2.22-1.19-2.31,0-6.34-3.81-6.76-9.63-1.08-17.24-6.21-24.76-11.67-11.53-11.56-23.91-22.47-29.38-38.76,16.4,15.75,36.64,26.12,54,42.16.62-9.05-5.56-10.37-10-12.88-17.67-10-26.32-26.82-35-44.67,12.46,8.58,19.68,21.07,30,30.59l1.29,1,1.31.59-1.18-2.08a.41.41,0,0,0-.3-.52c-2-5.54-4.74-10.95-5.95-16.67-2.54-12.09-8-22.89-13.35-33.78l-.18-1.57a11.5,11.5,0,0,1,2.82,1.86c13.45,16.55,26.32,33.47,32.62,55.75,4-14.4,8.49-27.47,7.51-44,1.89,3.37,2.66,4.29,3,5.35,4.52,16.29,1.91,31.86-5.72,46.51-3.36,6.43-4.09,10.58.6,16.21.89-22.48,20.07-36.94,23.55-58.06,3.09,16.07-2.35,30.82-7,45.7-3.56,6.74-7.69,13.12-13.15,18.42-3.34,3.23-2.63,6-.15,10.09,2.75-10.84,10.68-17.88,14.5-27.22,7.38-11,15.41-21.59,19.34-34.61.42,17.7-4.15,34-12.6,49.26l-3,4.94,1,.57,3.14-4.26c10-12.59,20.21-25,23.17-41.58,1.43,30.1-12.3,54.66-28.69,78.25-.8.82-2,1.42-1.31,3.53l2.89-3.32,30.75-33.89V535.4c-1,1.25-2.14,2.46-3.14,3.75-8.37,10.89-16.49,22-25.17,32.63-7.1,8.69-7.8,10-4.21,16.71C1455.1,571.62,1468.65,559.71,1480.36,546.36Zm-35.25,7.06c-5.26,2.45-9.16,5.46-4.63,12q2.71-5.37,5.45-10.81c.61-.53,1.4-1,.66-1.94C1446.51,552.61,1445.62,553.17,1445.11,553.42Zm-40-26.6c8.27,6,17.1,11.26,26.3,19.83-2.38-5.46-1.39-10.41-5.63-11.7C1418.69,532.77,1412.09,529.46,1405.14,526.82ZM1435.93,544c1.38-4.24,2.52-7.76,3.81-11.76C1434,534.8,1432.11,538.13,1435.93,544Z" transform="translate(-1337.72 -0.84)"/><path class="cls-2" d="M1402.92,183.56c-8.08,8.88-15.84,18-20.52,29.25-.51,1.22-1,2.45-1.53,3.65-.09.21-.53.27-1.27.6-.93-2.41-.62-4.81-.22-7.14a52.12,52.12,0,0,1,9.29-21.65c4.94-7,9.37-14.17,17.42-18.47,3.92-2.1,2.3-7.41,3.06-11.66-.8.36-1.44.43-1.6.75-5.27,10.63-14.89,17-23.72,24-5.88,4.72-12,9.16-17,14.86-.6.67-1.29,1.24-2.07.68s-.27-1.42,0-2.2c2.54-6.87,6.59-12.85,10.89-18.68,2.84-3.84,5.8-7.6,8.7-11.39,2.4-2,5.09-3.79,7-7.44-3.6.75-5.42,2.76-7.37,4.58-10.18,5.94-19.69,12.76-27.84,21.51,6.66-15.41,16-28.71,29.94-39.13-3.19-1.61-4.86,0-6.48,1-10.51,6.74-21.77,12.61-28.51,23.88-.48.8-1.32,1.44-2,.89-1.16-1-.86-2.47-.2-3.59,1.9-3.27,3.86-6.53,6-9.65,9.18-13.45,19.44-25.84,33.37-34.74,5.69-3.63,11.11-7.68,16.66-11.54a54.05,54.05,0,0,1,6.83-2.54c6.47-1.48,6.65-1.6,6.36-9.37a49.35,49.35,0,0,1-13.29,10.4c-16.6,7.3-33.42,14.13-48.56,24.35a31,31,0,0,0-7.62,7c-.75,1-1.79,1.79-2.88.81s.3-1.67.68-2.48c5.93-12.51,15.19-22,26.89-29,11.87-7.15,24-13.82,36.07-20.68.71-.4,1.52-.63,2.25-1,2.2-1.14,5.72.87,6.82-1.58,1.5-3.36,1.77-7.28,2.78-12-16.19,15.1-36.53,20.6-54.24,30.82-7.89,4.55-16.56,8.26-21.88,16.75-.9-3.76-.87-4.2.81-7.58a48.54,48.54,0,0,1,12.26-15.43C1371.37,89.36,1385,78.94,1401,72.11c4.84-2.06,9.29-5,13.93-7.54,1.3-.7,2.82-2,4-1.81,6.62,1.39,5.46-3.53,5.76-7,.16-1.85.78-3.79-.05-5.65l.46.55.37-.44-.8,0c-12.09,12.69-28.06,19-43.39,26.23-11.9,5.66-24.87,9-35.65,17.06-2.2,1.63-4.72,2.92-5.57,6.32-2.9-3-1-4.87.78-6.36,6.64-5.69,13.2-11.53,20.18-16.77,15.86-11.91,31.87-23.65,50.54-31,1.39-.54,2.79-1,4.2-1.51,11-3.66,11.86-5,10.87-17.19-.3-.09-.78-.34-.89-.23-11.31,11.78-27,15.47-41,22.45-8.11,4.06-16.65,7.35-24.51,11.85-8.45,4.85-17.42,9.46-21.91,20.31-1.41-4,0-6.27,1.07-8.54,4.56-9.25,11.8-16.43,19.24-23.13,15.53-14,33.55-23.93,53.31-30.67a17,17,0,0,1,3.37-.77c12.72-1.58,10.09-.65,12.2-13.5.21-1.3.17-2.64.25-4h5c-2.45,8,.22,12.92,8.46,15.14a13.24,13.24,0,0,1,6.33,4.57c9.79,12.51,22,22.7,32.34,34.74a12.69,12.69,0,0,1,3.48,9.78c-.32,4.74-.07,9.52-.07,15.32L1463.9,64.17c-12.44-11.5-25.23-22.72-31.2-39.59-1,4.91-1.33,9.64-2,14.33-.35,2.58.51,3.5,3,3.87,3.53.53,6.21,2.64,8.81,5.11,6.45,6.08,13.16,11.87,19.77,17.78,5.79,6.12,10.81,12.89,16.2,19.33,5.61,6.7,4.7,14,4.67,22.66-19.18-18.39-43.06-30.95-52.57-57.4l-1.47.73q-.74,7-1.48,14a4.38,4.38,0,0,0,1.75,3.9c2.5,2.15,4.93,4.41,7.62,6.3a119.6,119.6,0,0,1,35.5,38.11c4.35,7.52,7.18,15.95,10.38,24.09.72,1.85.1,4.23.1,7.27-5.47-6.27-10.74-11.86-15.5-17.85-7-8.83-14.25-17.37-22.94-24.61-7.44-6.2-13-13.91-17.51-23.09-1.74,3.93-1.17,7.55-1.39,11.07a3,3,0,0,0,2.06,3.06c11.15,5.23,18,14.85,24.42,24.7a207,207,0,0,1,21.37,43.48c1,2.88,1,2.89.29,8.7-13.31-25-35.93-41.42-49-65.83-3.42,7.78-2.49,11.4,3.32,15.74,11.13,8.3,18.25,19.86,25.38,31.42,6.84,11.09,9.68,23.43,11.39,36.13A12.35,12.35,0,0,1,1464,194c-5-14.68-13.45-26.55-23.45-37.43,7.29,16.53,19.67,31,18.49,52.19-7.06-13.42-14-25.33-23.55-35.38,5.49,15.76,13.33,30.82,12,48.28-8.93-20.9-23.75-38.14-33.52-58.39-2.2,3.92-1.84,6.86.74,9.94,15.41,18.35,18.17,36.35,17.67,56.91-8.15-12.15-9.4-26.76-15.89-39.31.59,19.08-5.44,37.76-2.69,57-7.18-20.67-12.89-41.51-10.38-63.73.09-.36.34-1,.25-1C1403.07,182.69,1403,183.21,1402.92,183.56Zm14-39c-.54,3.41-3.21,7.24-.06,9.69,3.55,2.76,7.23,5.39,11,8.19C1426.16,155.32,1422,149.73,1416.92,144.55Zm2.85-21.52c-2.37,10.17-1.38,12,10.76,19.1Zm-8.62,19.17c-4.79,6.4-12.11,9.34-17.79,14.44,6.18-1.42,11.45-4.75,16.82-7.69C1412.16,147.88,1411.32,144.77,1411.15,142.2Zm3.17-20.69c-3,3.83-5.26,6.85-8.83,9.54C1413.49,131.24,1414.57,130.08,1414.32,121.51Zm19,50.1,1.44-1-4.83-7-1.22.9Z" transform="translate(-1337.72 -0.84)"/><path class="cls-2" d="M1418.84.84c-4.85,5.23-11.34,7.81-17.55,10.8-17,8.15-34,16.09-51,24.28-4.17,2-8,4.64-12.28,6.63,10.71-15.75,24.67-27.95,39.82-38.94,1.16-.83,2.81-1.15,3.31-2.77Z" transform="translate(-1337.72 -0.84)"/><path class="cls-2" d="M1465.41.84c5.93,4.8,10.7,10.76,16,16.15a4.67,4.67,0,0,1,1.79,3.39c0,6.23,0,12.46,0,19.81-6.31-4.12-12.13-7.24-17.17-11.35-9.56-7.79-19.91-14.86-26.48-25.77a15.13,15.13,0,0,1-.92-2.23Z" transform="translate(-1337.72 -0.84)"/><path class="cls-2" d="M1369.3.84c-3.59,3.14-7.81,5.3-12,7.57-6.74,3.68-13.58,7.22-18.78,13.26,2.29-8.3,9-13.69,12.91-20.83Z" transform="translate(-1337.72 -0.84)"/></svg>