<svg id="Camada_9" data-name="Camada 9" xmlns="http://www.w3.org/2000/svg" viewBox="0 0 1482.36 699.01"><defs><style>.cls-1{fill:#8b9904;}.cls-2{fill:#8a9800;}.cls-3{fill:#eff1de;}.cls-4{fill:#8c9800;}.cls-5{fill:#687200;}.cls-6{fill:#648210;}.cls-7{fill:#ebefe3;}.cls-8{fill:#697300;}.cls-9{fill:#697200;}.cls-10{fill:#6a7400;}.cls-11{fill:#658314;}.cls-12{fill:#628210;}.cls-13{fill:#516a11;}.cls-14{fill:#697304;}.cls-15{fill:#638309;}.cls-16{fill:#67860f;}.cls-17{fill:#65840b;}.cls-18{fill:#8b9804;}.cls-19{fill:#8a9803;}.cls-20{fill:#536b0f;}.cls-21{fill:#d6dcc7;}.cls-22{fill:#64840a;}.cls-23{fill:#65850c;}</style></defs><path class="cls-1" d="M189.62,0H307.94a44.72,44.72,0,0,1-5.18,22.42c-6.3,12.1-14.29,23.09-22.41,34-4.32,5.8-8.1,11.75-4.82,19.56.81,1.93-.31,3-2.43,1.69l-3.33-10.81c-.76,4.46-1.31,7.67-1.87,10.89-6.21,11.45-31.31,30.68-41.79,31,5.74-3.36,10.11-6.68,11.39-12.51,3-13.74,5.55-27.54,4.29-41.68-.53-6-1.28-12.12-5.38-18-3.09,4.31-3.15,8.55-3.08,12.63.17,10.65,1.66,21.27.73,31.94-1.57,18-15.1,30.54-33,31.5-10.57.57-20.27-2.61-30.18-5.32-12.9-3.53-24.84,3-28.94,15.72-1.44,4.46-2.72,9-4.07,13.46-.75-6.24,1-12.5-1.59-18.23-3.49-7.7-6.94-15.54-11.54-22.59-9.16-14-8.77-16.39,6.06-27.37.9-.66,1.89-1.19,2.79-1.85,11.26-8.2,24.51-12.66,36.53-19.45,3.21-1.81,8-4.11,6.83-7.9-1.46-4.81-7.09-3.38-10.65-2.46-14.84,3.83-28.65,10.11-39.9,20.73-8,7.54-14.9,16-13.89,28.42A186.18,186.18,0,0,1,109,63.36c-1.72-15.81,3.86-27.5,18.42-35.25,11.74-6.26,24.14-10.16,36.89-13.35,8.38-2.09,17.08-3,24.66-7.81C192.51,4.7,192.65,2.64,189.62,0Zm-5.54,57a1.6,1.6,0,0,0,.81-.83c6.16-5.88,12.48-11.64,16.73-19l-1.47-1.26L184,54.66,182.62,56c-2,1.69-4.24,3.24-4.64,6.79C181.25,61.35,182.5,59,184.08,57Zm85.24,1.19c3.35-2.16,2.74-5.3,3.12-7.65,2.31-14,.73-27-11.25-36.67-1.32-1.07-2.65-3-4.5-1.63-1.5,1.12-.31,2.88.35,4.18C263.6,29.37,266.73,43.36,269.32,58.16ZM151.7,97.82c3.15-4,7.37-7.33,8.12-12.73A26.87,26.87,0,0,0,151.7,97.82Z" transform="translate(0 0.17)"/><path class="cls-1" d="M170.8,0c-4,3-9,3.16-13.57,4.51A212.88,212.88,0,0,0,107.08,27c-.51-10,3.91-18.19,4.55-27Z" transform="translate(0 0.17)"/><path class="cls-2" d="M431.87,671.8l-27.7-7.13c-1-1.29-2-2.41-3.91-1.23,1.11,1.44,2.06,2.89,3.83,3.47,4.91,3,9.43,6.87,15.33,7.9a85.76,85.76,0,0,0,39.29-2.11c6.17-1.8,6.58-1.49,6.66,5.13s-2,12.64-2.59,19H354.33c6.92-38.86,15-77.4,33.21-113-3.82,2.07-5,3.89-8.59,10.65-11,20.7-16.94,43.06-21.77,65.77-2.58,12.09-4.43,24.31-5.83,36.59H287.67c-5.71-16.4-3.84-33.37-3.71-50.21a30.56,30.56,0,0,1,.7-4.91c.16-1,.29-2.2,1.34-2.48,1.22-.31,1.48,1,2,1.79,4.77,7.61,11.66,12.58,20,15.5,2.94,1,6.14,2.45,9.63,0-3.5-2.71-7.63-3-11.14-4.67-16.87-8.19-23.22-21.09-10-37.17,7.38-9,7.47-9,13.33,1.09.67,1.15,1.31,2.31,2,3.45A52,52,0,0,0,329,636.77c1.59,1,3.76,2.29,5.48.56s-.24-3.4-.91-4.91c-3.23-7.26-9.91-11.42-15.32-16.71-4.36-4.27-8.84-8.45-10.88-14.45a10.14,10.14,0,0,1,6.6-13A195.7,195.7,0,0,0,335.82,580c2.88-1.28,3.44-.23,3.6,2.36a59.78,59.78,0,0,0,3.86,16.39c1.64,4.6,4.87,6.9,9.89,6.53,3.55-.26,4.64-2.1,3.67-5.36-.86-2.89-2.52-5.37-4.06-7.93a120.56,120.56,0,0,1-11.84-26.18c-1.52-4.83-.26-8.25,3.92-11.07a128.77,128.77,0,0,1,15.21-8.39c2.94-1.46,4.69-1.69,4.8,2.78.12,5.45.69,11,4.19,16.47,0-5.84.15-10.92-.06-16-.13-3.21,1.15-5.25,3.78-6.94,6.73-4.33,14-7.51,21.37-10.5,1.43-.58,3-1.36,3.09,1.27-5.18,5.68-9.49,11.73-8.82,19.94,5.44-5.58,6.07-13.72,10.94-19.55a76,76,0,0,1,6.45-5.36c7.23-4.79,15.5-4.68,22.35.07,3.82,2.64,3.85,4-.16,6.23a75.2,75.2,0,0,1-8.55,3.94,32.57,32.57,0,0,0-18.75,18.67c-.46,1.11-1.15,2.27,0,3,.94.6,1.84-.38,2.5-1.12,7.3-8.24,16.84-13.21,26.47-18,5.9-2.92,11.87-6,18.77-5.67,5,.22,8,3.44,10.45,7.38,1.34,2.17.77,4.1-1.1,5.71-2.13.24-4.26.64-6.39.68-7.56.13-14.86,1.31-21.47,5.19A128.91,128.91,0,0,0,406,573.05c-.8.77-1.83,1.52-1,4.22,17.71-10.3,34.07-23.12,54.69-26.72,6,2.23,5,7.51,5.24,12.17.18,4.2-2.25,6.59-6,8.16-12.82,5.35-26.32,9.12-38.45,16.12-6.77,3.91-13.22,8.27-17.93,14.69-.83,1.13-2,2.57-.61,4s2.82.11,3.92-.76c6.79-5.33,14.25-9.67,21.45-14.38,9.35-6.11,19-11.48,30.46-12.56,7.73-.74,9.93.84,10.79,8.49a74.17,74.17,0,0,1,.58,9.41c-.17,9.53-4.88,15.76-14.05,18A175.28,175.28,0,0,0,419,627.53c-4.08,2-8.22,4-11.78,7.44a17.37,17.37,0,0,0,10.48,3.33c7.37.22,14.5-1.21,21.56-3.16a198,198,0,0,0,20.11-7.21c7.83-3.11,14.48-.72,14.35,22.89a9.5,9.5,0,0,0-5.06,6.23c-2.63,9-8.3,14.15-18,14.92-5.61.45-11.15.86-16.74.15" transform="translate(0 0.17)"/><path class="cls-3" d="M431.87,671.8l2,.32" transform="translate(0 0.17)"/><path class="cls-4" d="M25.82,342.72c.2-2.52,1.58-4,4-4.2,4.59-.3,9,.31,11.93,4.43,4.11,5.74,4.9,12.54,5.88,19.28,1.66,11.36,2.4,22.71-.13,34.21,5.53-5,8.62-11,8.75-18.44.1-5.85-1.43-11.5-2.28-17.24-.27-1.84-1.27-4.32.88-5.44,1.77-.93,3.81.18,5.55,1.18,11.46,6.64,14.6,21.07,7.13,32.92-2,3.22-4.23,6.34-6.22,9.58-.62,1-2,2.43-.5,3.44,1.24.82,2.54-.53,3.31-1.53a52.55,52.55,0,0,0,8-15.32c.21-.6.43-1.19.64-1.75.5.06,1,0,1.08.14A82.35,82.35,0,0,1,78,411.79c0,2.17-1.57,3.51-3.28,4.67-4.47,3-9.1,5.8-13.86,8.62,4.6.67,8.61-1.13,12.57-3.16,8.36-4.31,8.39-4.32,9.37,5.48.4,4,.69,7.93.86,11.9.21,4.91-1.89,8.09-6.77,9.61a121.91,121.91,0,0,1-24.21,4.62c-3.27.33-6.58.38-9.85.76-2.58.29-5.8.37-6.14,3.76-.31,3,1.95,5.23,4.35,6.73s5,1.4,7.65.64c5.4-1.54,10.74-3.24,15.59-6.15,2.17-1.3,3.19-.93,3.61,1.68a196.87,196.87,0,0,0,5.4,23.22c1.75,6.08-1.57,11.3-7.75,12.6-6,1.25-11.77.11-17.59-1.18-7.19-1.6-14.2-4.59-21.79-3.31-1.66.28-4.11-.15-4.6,2.06-.53,2.42,1.78,3.46,3.47,4.24a51.27,51.27,0,0,0,19.1,4.47,75.33,75.33,0,0,0,8.88-.34c11.53-.81,11.8-.46,8,11-.46,1.42-1,2.82-1.55,4.19-6.65,15.78-19.61,15.73-33.31,8.48-3.83-2-6.62-5.76-11.3-7.5.32,4.44,3.24,6.52,5.89,8.49a37.21,37.21,0,0,0,23,7.65c1,0,2.08-.57,2.69.48.8,1.37-.44,2.18-1.24,2.88C32.78,549.29,19.51,559,3.69,564.6.94,565.57,0,565,0,561.87Q.17,521,0,480.22c0-3.13,1.71-4.88,3.47-6.79a193.34,193.34,0,0,0,29.37-41.69c1.78-3.42,3.88-6.81,3.43-11.07C25.31,437.74,14.65,455,.41,470.84V356.91a47.22,47.22,0,0,1,7.5,24.86c.42,11.26,1.54,22.52.54,33.81-.16,1.81-.95,4.61,1.73,5,2.36.3,3-2.42,3.41-4.24,2.92-11.34,2-22.75-.18-34-1.83-9.61-4.23-19.1-6.44-28.62-1.31-5.64,1.71-8.83,6.18-11.06,3.5-1.75,7.16-4.1,10.64.15a112.89,112.89,0,0,1,7,37.9c0,6.29.39,12.57.69,18.86.05.91.21,2.22,1.42,2.32s1.5-1.1,1.65-2.05c1.76-11,2.79-22,1.71-33.17C35.38,357.42,29.69,350.51,25.82,342.72Z" transform="translate(0 0.17)"/><path class="cls-5" d="M115.4,696.84H0V621c5,10.14,10,18.18,20.19,20.83C17.61,637.23,12.79,635,9.5,631,2.9,623.21,1.18,613,5.86,606.49c4.08-5.65,9.73-9.32,16.09-12,2.81-1.2,3.9-.26,4.3,2.53.55,3.76,1.25,7.49,2,11.21a49.64,49.64,0,0,0,9.12,19.6c1.07,1.45,2.65,3.08,4.53,2.3s.9-2.93.81-4.43c-.36-6.16-3.7-11.2-6.45-16.45-3-5.72-6.1-11.43-6.55-18-.51-7.42,3.65-11.71,11-11.13a122.78,122.78,0,0,0,19.84-.15c4.29-.35,4.82.85,3.61,4.55a42.4,42.4,0,0,0-1.51,16.69c.32,3.93,5,7.94,8.27,7.07,4.45-1.18,2.62-5,2.63-7.91a21.27,21.27,0,0,0-.72-3.89,110.78,110.78,0,0,1-2-27.13c.21-3.36.87-6.62,4.69-8,6.47-2.35,13.26-2.78,20-3.28,2.6-.19,3.2.86,2.28,3.68-1.74,5.32-3,10.84-1.74,17.72,1.85-5.87,3.41-10.66,4.85-15.48a6.34,6.34,0,0,1,5-4.88,105.64,105.64,0,0,1,23.18-2.37c1.39,0,3.51-.43,2.16,2.28-6.21,3.33-11.89,7.16-14.42,13.9l1.58,1.54,13.09-13.84c1.2-.57,2.39-1.15,3.59-1.7,9-4.12,18-2.41,24.49,4.67,1.25,1.35,2.73,3,2.29,4.75-.52,2.14-2.93,1.8-4.63,2-4.77.57-9.59.71-14.32,1.48-7.37,1.19-13.22,4.89-16.92,11.58l-.42.92.82-.51a24.51,24.51,0,0,0,2.79-.9c12.82-5.66,26.38-7.18,40.19-7,7,.09,11.13,3.29,13.05,9.34,1.54,4.82-.08,6.87-5.4,6.83-14.9-6.31-44.69-2.39-52.59,7.58,17.4-3.24,34.66-7.81,52.58-6.33a18.53,18.53,0,0,1,6.94,3.26v6c-2.53,8.75-8.81,10.21-17.08,10-11.55-.35-23.22-.51-34.67,1.82-6.34,1.29-12.6,2.93-18.07,6.57-1.12.75-2.87,1.72-1.84,3.51.86,1.49,2.4.56,3.62.26,7.72-1.86,15.41-3.85,23.15-5.64,11.22-2.59,22.43-4.27,33.79-.45,4.59,1.54,5.84,4.44,4.86,8.77-.43,1.92-1,3.83-1.58,5.7-4.66,14.09-9.08,16.57-23.83,15.48-15-1.12-30-.7-45.33,3.1,2.89,4.08,6.63,6,10.73,7.3,10.23,3.29,20.78,3.92,31.42,3.7,3.46-.07,6.91-.66,10.36.29,4,1.1,5.47,3.71,4.34,7.5-3,9.87-6.7,19.36-14.69,26.47H125.35C113.83,691.07,103.66,683.18,93,676c3.74,7.48,8.47,13.78,16.2,17.32C111.37,694.24,113.9,694.72,115.4,696.84Zm-76.1-9.07c19.19-29.7,37.58-59.95,64-84.31l-2-1.5C73.18,625.07,55.05,655.56,39.3,687.77Z" transform="translate(0 0.17)"/><path class="cls-6" d="M500.27,696.84c.51-4.39-1.76-6.62-5.41-8.93-23.29-14.73-39.34-35-46.21-62-.51-2-.41-4.11-.77-8.13,7.61,14.94,17.28,25.73,28.16,35.53.78.6,1.57,1.19,2.36,1.78l.87,1.12.33,0-.41,0c.12-.68.08-1.24-.86-1.1.94-1,0-1.52-.59-2.12-6.09-10.61-15.61-18.82-20.95-30-2.65-5.56-3.9-11.46-4.92-17.67,8.29,10.53,16.52,21,26.48,29.87.94,1.06,1.88,2.11,2.83,3.16l1,1,3.65,4.36.73.9c4.16,5.1,8.27,10.24,12.54,15.24.68.81,2.81,2.51,2.95,1.41.4-3.09,2.42-7.29-1.55-9.24A100.6,100.6,0,0,1,487.56,644l-1-1-3.63-4.46-.73-.81-2.73-3.6c-6.62-9.58-11-20.32-15.91-30.77-2-4.29-2.94-8.93-2.4-16,11.92,21.41,28.73,36.53,41.24,56.7,1.73-5.22,1.37-8.06-1.67-10.66-17.22-14.65-23.11-34.63-26.52-56.69a158.42,158.42,0,0,1,17,30.93c1.22,2.83,2.35,5.84,4.92,7.88l.85.67-.25-1.26c-3.64-18.36.24-37.43-6.88-57,8.46,7.48,20.36,46.58,20.52,65.17,7.5-13,15.57-24.16,18.2-38.59,3.51,6,2.35,17.76-3,27.9-4.29,8.07-7.42,16.91-15.65,22.54-4.06,2.77-1.73,7.71-1.14,12,7.24-20.72,29.6-29.63,38.64-51.38.28,10.45-3.2,17.76-7,24.83s-8.26,14-12.08,21.35c10.93-8.49,21.78-17,29.18-29.14a103.09,103.09,0,0,1-25.82,46.23c13.54-9.36,27.29-18.37,34-35,1.77,7-2,12-4.34,17.3-8.66,19.35-23,34.16-38.76,47.84a24.52,24.52,0,0,0-2.41,2.85l.07,0-1,.09c-3.21,1.87-6.22,4.14-10,4.89Zm27.86-34.77,1.11-.78,1.35-.71.63-1.42-1.38.65-1,1.12-.64,1.22-.62.29c.1,0,.23.06.29,0A2.16,2.16,0,0,0,528.13,662.07Zm-45.81-2.89a1.68,1.68,0,0,0-.12-.38c0-.06-.15-.08-.22-.12l.41.43,4.52,5.37c5,6.11,9.94,12.22,16,19.69-1.36-5.24,1.12-9.39-2.93-12.18s-8.07-5.66-12.11-8.49Zm32,14.88c-6.86-.31-8.13,3.36-6.63,10l6.52-10,.55-.63-.47,0Zm11.94-29.3,1-1.48-1.13-.34c-4.84,3.71-9.45,7.81-14.6,11-3.91,2.43-4.87,5.18-3.34,10.54C512.54,655.56,520.84,651.61,526.23,644.76Z" transform="translate(0 0.17)"/><path class="cls-6" d="M473.41,696.84c-10.53-13.13-20.72-26.5-28.54-41.5-1.94-3.72-4.36-7.31-4.15-13.72,14.49,23.15,38.22,35,53.58,55.22Z" transform="translate(0 0.17)"/><path class="cls-6" d="M520.12,691.89c.56,1.2,1.35.56,2,.16,14.27-9.29,29.33-17.43,42.06-29,4-3.6,6.23-8.33,10.45-14.51a63.74,63.74,0,0,1-12.76,28.59c-5.83,7.75-13.89,13.1-20.78,19.7H516.19c.24-2.47,3.1-2.23,4.09-3.93.08-.13.26-.28.24-.37a3.56,3.56,0,0,0-.33-.68Z" transform="translate(0 0.17)"/><path class="cls-6" d="M447.54,696.84c-2.19-7.17-6.62-13.12-10.63-19.3-2-3.13-4.42-6.11-5.31-11.55l33.85,30.85Z" transform="translate(0 0.17)"/><path class="cls-6" d="M551,696.84c9.18-7.24,19.82-12.87,26.2-25.21,1,11.19-5.61,17.65-9.29,25.21Z" transform="translate(0 0.17)"/><path class="cls-6" d="M423.67,696.84l-1.77-9.22,5.75,9.22Z" transform="translate(0 0.17)"/><path class="cls-7" d="M482.15,639.45" transform="translate(0 0.17)"/><path class="cls-7" d="M482.19,637.74" transform="translate(0 0.17)"/><path class="cls-6" d="M514.29,674.06l0-.74.47,0-.55.63Z" transform="translate(0 0.17)"/><path class="cls-2" d="M1316.93,696.84h-50.85c-1.23-1.32-2.41-2.71-3.71-4-16.43-15.8-35.14-28.6-54-41.17-20.25-13.47-41.46-24.9-64.62-32.55-5.09-1.68-10.23-3.35-16.06-2.75,1.12,2.52,3.22,2.31,4.79,2.92,22.3,8.66,44,18.65,64.21,31.44q29.58,18.74,57.38,40.15c2.43,1.88,5.6,2.91,7.07,5.93H1151.42c1.92-3.85,5.43-7,5.67-12.21a170,170,0,0,0-42.56,12.21H1056.7c-1.55-2.32-3.16-4.62-4.64-7-3.11-4.94-2.8-8.45,1.66-12.26,6.46-5.53,13.57-10,21.86-12.47,17.58-5.21,35.65-7.69,53.75-10,2.52-.33,6.79.69,6.74-3.15,0-3.26-4.12-3.45-6.77-3.7-10-1-19.83.26-29.6,2.56-16.42,3.87-31.52,11.3-47.25,17-10.18,3.7-14,2.72-20.12-6.36-4.79-7.08-4-10.47,3.35-14.82a21.13,21.13,0,0,1,2.22-1.14c12.65-5.5,25.46-10.46,39.25-12.49,8.37-1.22,16.68-2.88,25-4.44,2-.38,5-.62,4.7-3.23-.23-2-3.13-1.27-4.82-1.24-7.46.14-15,.17-22.37.84-14.21,1.29-28,4-39,14.28-1.69,1.58-3.5,3-5.28,4.54-2.08,1.78-4.42,3.34-7.22,2.27-3-1.15-3.58-4-3.88-7-.87-8.52,2.62-15.07,11-18.64,18.91-8.1,38.4-13.79,59.35-12.27,1,.07,2.35.9,3.07-1.24a53.81,53.81,0,0,0-5.24-3.34c-8.83-4.39-18-5.45-27.56-2.54-6,1.84-12,3.92-18.08,5.48-5,1.27-6.28.06-5.13-4.92,1.43-6.24,4.46-11.82,9.75-15.71,10.37-7.64,21.61-7.5,33.08-3,4.93,2,9.63,4.46,14.51,6.56,1,.44,2.59,1.61,3.47-.15.74-1.45-.55-2.47-1.51-3.34a10.6,10.6,0,0,0-3.19-2.32c-6.38-2.31-12.54-5.33-19.39-6.19-1.09-.14-2.61.42-2.9-1.12-.33-1.69,1.22-2.1,2.47-2.55,10.15-3.68,20.33-7.21,31-9,3.84-.63,6.6.44,9.18,3.42,4.93,5.7,9.92,11.33,13.83,18.13,1.08-2.67.22-4.66-.51-6.69a46.85,46.85,0,0,0-10-15.93c-3.68-4-1.75-5.18,1.85-6.28,7.61-2.33,15.23-4.7,23.2-5.55,7.53-.8,9.77.28,13.15,7a142,142,0,0,1,12.24,37.13c.7,3.57,1.33,7.16,3,10.46,2.11,4.23,4.69,4.79,8.24,1.87,5.25-4.3,6.49-8.64,3.93-15a80.17,80.17,0,0,0-11.48-20.25c-1.32-1.66-2.77-3.26.61-4.34a259.7,259.7,0,0,0,31-12.25c6.48-3,13.91.37,16.94,6.94,1.84,4,2.37,8.22,2.64,12.54.58,9.15-1.14,18.15-1.78,27.21a37.55,37.55,0,0,0,2.29,16.58c.5,1.3.61,3.2,2.51,3.31s2.79-1.49,3.72-2.89c1.79-2.71,2.18-5.83,2.77-8.92,2.62-13.56-.2-26.68-3.35-39.74-.91-3.79.23-5.22,4-5.24,9.49,0,18.49,1.85,26.75,6.6a19.06,19.06,0,0,1,9.8,14.69c1.43,10.06,0,19.4-5.31,28.19-2,3.29-4.34,6.5-4.77,10.71,3.84-1,4-1,6-3.55,8.44-11.17,11.11-23.8,9.23-37.5-.18-1.35-1.83-2.88,0-3.94,1.58-.92,2.77.69,3.9,1.53,8.13,6.1,15.07,13.44,21.94,20.87,11,11.91,20.27,24.92,25.81,40.29,2.54,7.08,3.9,14.36,3,21.9C1332,678.55,1326.36,688.72,1316.93,696.84Z" transform="translate(0 0.17)"/><path class="cls-8" d="M1452.47,698.84h-78.69c.82-2,2.79-1.39,4.26-1.78,14.44-3.8,25.88-10.95,30-26.43.39-1.49,1.6-3.39-.35-4.45s-3,.75-4,2c-9.14,11.12-20.38,19.77-32.34,27.59-1.14.74-3.06.93-2.46,3.08h-34.87c-9.47-6.21-20.75-9.7-29.31-19.39,2.17.57,3.55.52,4.28,1.18,4.06,3.7,8.74,3.42,13.61,2.57a157.74,157.74,0,0,0,29.68-8.23,67.36,67.36,0,0,0,21.57-13.1c1-1,2.9-2,2.26-3.52-.76-1.79-2.91-1.25-4.49-1-6.87,1.08-12.71,4.65-18.69,7.87-6.72,3.62-13.45,7.21-20.91,9.14-17.14,4.46-32.36-2.27-40.63-17.78a62.45,62.45,0,0,1-7-27.23c-.56-14.38-14.11-27.92-32.33-22.51-2.71.81-6.35,3.15-9.87-.11,8.27-1.74,15.31-4.33,20.66-11.11,6.06-7.67,11.74-15.62,17.75-23.32,4.46-5.71,8.24-6.45,14.77-3.12A117.6,117.6,0,0,1,1316,582c7.61,6.13,14.93,12.64,22.74,18.52,3,2.29,6.54,6,11,3.39,2.53-1.48.78-7.48-3.26-12.46a96.21,96.21,0,0,0-20-18.57c-12.54-8.68-25.81-15-41.78-11.32a1.85,1.85,0,0,1-2.35-.79c8.77-4,16.24-10.23,25.42-13.31,8.93-3,17.19-2.72,25.66,2.53,15.94,9.89,27.21,24.07,38.11,38.74,3.77,5.08,7.71,10,13.08,13.49,1.37.9,3,2.16,4.56,1.27s.85-3,.64-4.59c-.78-6.1-3.6-11.38-7.21-16.17-11-14.61-23.32-28-38-39.06-3.93-3-7.73-6.06-11.69-9.16,1.89-1.9,4.15-1.93,6.14-2.47,10.67-2.84,21.54-3.67,32.56-3.54,4.09.05,6.84,1.4,8.92,5,9.91,16.89,19.6,33.85,25.23,52.78a71.67,71.67,0,0,0,6.82,16c1.93,3.27,4.07,3.14,5.68-.3a17.44,17.44,0,0,0,1.29-10.69c-.63-3.43-1.17-6.88-2.1-10.23-4.18-15.17-9.56-29.69-22.56-39.9-.64-.51-1.34-1-.7-2.18,2.19,0,4.48-.12,6.76,0,27.68,1.68,65,27.34,67.46,64.47,1.07,16.07-2.71,29.18-17.35,37.66-3.93,2.28-8,4.41-12.59,7,14.25,4.35,27.67,9,40.94,14v9c-25.48-12.48-37.66-16.62-43.94-14.93C1455.38,671.13,1460.8,684.76,1452.47,698.84Zm-179.23-95.09c.92,2,2.26,1.55,3.29,1.64a237.64,237.64,0,0,1,55.28,11.85c11.29,3.78,22.33,8.22,34.14,10.59,15.46,3.1,30.47,7.88,44.46,15.46,3.38,1.83,6.73,3.9,10.72,4.55-1.61-.68-1.92-2.46-3.55-3.27-8.32-4.11-16.27-9.13-25.19-11.78-32.86-9.78-65.44-20.6-99-28A64.49,64.49,0,0,0,1273.24,603.75Z" transform="translate(0 0.17)"/><path class="cls-9" d="M1382.22,429.24c10.41-5.71,15.94-16,22.94-24.84,1.74-2.2,3.16-4.65,4.92-6.83,4.88-6,8.45-6.72,15.48-3.18,12.79,6.43,24,15.11,34.51,24.71,5.15,4.7,10.6,8.94,17.33,11.17,1.44,1.68,1.78.58,2-.8l1-2.09h1v17.91c-1,.71-1.93.18-2.8-.15-16.81-6.4-34.54-9.43-51.74-14.39a57.93,57.93,0,0,0-23.49-1.46,4,4,0,0,0,2.31,1c13.18,1.6,26.27,3.29,39.16,7,12.37,3.53,24.45,7.8,36.56,12.06v41.79c-5.77,2.41-11.14,5.69-17.15,7.6-20.7,6.58-39.38-3.08-46.14-23.85a101.16,101.16,0,0,1-4-19.88c-2-17.2-11-24.88-28-23.78-1.15.08-2.3.1-3.45.14C1382.46,430.6,1382.34,429.92,1382.22,429.24Z" transform="translate(0 0.17)"/><path class="cls-10" d="M1481.36,427.37h-1c-.28-7.52-5.34-12.27-10.07-17.07-11.67-11.82-24.6-21.55-41.56-24.36-4.11-.68-8.15-1-12.22.28a8.75,8.75,0,0,1-4.26,0c10.89-5.66,20.29-14.17,33.12-15.66a23.28,23.28,0,0,1,15.18,3.06,106,106,0,0,1,20.77,15.92Z" transform="translate(0 0.17)"/><path class="cls-10" d="M1481.36,528.86a33.06,33.06,0,0,1-14.69-3.93c-11.17-5.51-22.64-10.6-32-19.58,1.7-.74,3-.57,4,.35,4,3.7,8.68,3.32,13.53,2.51,8.33-1.39,16.35-3.91,24.41-6.32,1.51-.45,2.92-1.71,4.68-.89Z" transform="translate(0 0.17)"/><path class="cls-10" d="M1481.36,373.65c-7.07-3.58-12.16-9.78-20-14.38a78.35,78.35,0,0,1,20-4.53Z" transform="translate(0 0.17)"/><path class="cls-10" d="M1382.22,429.24c.12.68.24,1.36.35,2-3.25,1.36-6.52,2.44-11.2.74Z" transform="translate(0 0.17)"/><path class="cls-10" d="M1479.41,429.47c-.23,1.38-.57,2.48-2,.8Z" transform="translate(0 0.17)"/><path class="cls-11" d="M1045.38,696.84c1-3.87-.16-6.82-3.29-9.49-16.95-14.49-22.33-34.35-25.95-56.13a162.66,162.66,0,0,1,16.6,29.91c1.36,3.28,2.69,6.7,5.53,9.15.25.5.49,1,.74,1.51.68-.74.37-1.39-.17-2a97,97,0,0,1-1.66-26.51c.55-8.16-2.57-15.89-3.14-23.93-.12-1.62-.47-3.23-.74-5,7.13,5.48,19.65,46.5,19.84,62.42q5.25-8.88,10.49-17.77c3.46-5.91,5.33-12.48,7.43-20.37a16.9,16.9,0,0,1,1.62,11.32c-2.93,14.9-7.93,28.84-20.14,39-2.75,2.28-2.9,4.92-2.18,8Z" transform="translate(0 0.17)"/><path class="cls-12" d="M1021.85,688.93c-6.77-9.06-10.77-19.58-15.7-29.61-2.24-4.58-3.48-9.49-2.44-15,11.42,18.92,27.83,34,39.68,52.54h-14.92A20.53,20.53,0,0,0,1021.85,688.93Z" transform="translate(0 0.17)"/><path class="cls-11" d="M1054.34,696.84c.48-3.92,2.52-7,5.23-9.78,5.64-5.78,11.23-11.61,16.88-17.4,5-5.13,9.87-10.35,12.61-17.25,1,4.75-.51,9-2.09,13.17-3.66,9.58-9.1,18.23-14.66,26.8-.64,1-2.77,1.73-1.13,3.52l.09,0c-1.42-1.17-1.81-.3-2,1Z" transform="translate(0 0.17)"/><path class="cls-11" d="M1021.85,688.93a20.53,20.53,0,0,1,6.62,7.91h-16.91c-3.77-6.71-9.56-12.07-12.77-19.21-2.52-5.57-3.71-11.42-5.53-17.11,2.24-.72,2.63.64,3.19,1.53,6.48,10.2,14.8,18.85,23.23,27.43C1021.21,691,1021.52,690.69,1021.85,688.93Z" transform="translate(0 0.17)"/><path class="cls-12" d="M1071.18,695.9c10.92-7.93,20.93-16.74,28.11-29.06,0,4.95-1,8.2-4.68,15.57-2.44,4.83-5,9.62-7.44,14.43h-15.92l0-1Z" transform="translate(0 0.17)"/><path class="cls-11" d="M995.64,696.84c0-3.9-2.45-7-3.42-10.63-1.05-3.88-2.42-7.69-1.33-12,3.35,8.9,10.45,15.12,15.69,22.62Z" transform="translate(0 0.17)"/><path class="cls-11" d="M1096.12,696.84c4.13-5.8,9.46-10.83,11.5-19.4,2,8.35-2.41,13.59-4.54,19.4Z" transform="translate(0 0.17)"/><path class="cls-13" d="M855.84,652.3c3.91-13,12.25-23.15,21.29-32.84a24.56,24.56,0,0,1,3.42-2.62c1.13,1.6-.34,2.76-.77,4-3.06,9.32-8.75,17.3-13.28,25.88-.4.76-1.08,2.15-.86,2.34,1,.79,1.74-.06,2.49-.74,10.53-9.46,23.14-16.5,32.46-27.4.71-.84,1.63-2.81,3-1.78s-.29,2.44-.9,3.46c-8.42,14-17.41,27.59-29.77,38.63-.88.79-3.28,1.06-2.27,3,.82,1.61,2.63.94,4,.74,10.1-1.46,20.35-2.23,30-6.12-.58,1.12-.87,2.63-1.79,3.31-12.28,9.18-26.34,11.77-41.24,9.93-4-.49-7.44-1.29-10.51,1.81-.59.6-2.13.61-1.56,1.95s1.56.6,2.51.39a39.82,39.82,0,0,1,15.73-.41c9,1.55,18.08,2.29,27.06,3.8,3.41.57,6.43-2.43,9.77-.51-2.91,3.57-7.39,3.9-11.3,5.38a5.42,5.42,0,0,1-1,.21c-16.84,3.25-33.6,5.09-49.77-2.85-2.12-1-3.44.13-4.9,1.16-.35.25-.82.95-.72,1.1,1.06,1.59,2.68.38,4,.68s2.59.38,3.87.63c14.27,2.78,28.54,5.51,42.78,8.41,3.67.75,7.39-1.23,11,.51-2,3.17-6.56,1.42-8.67,4.41H791.33c0-24.2,8.38-46.07,18.95-67.31,1.18-2.38,2.35-6.24,5.19-5.71,1.41.27-.54,4.56-1.29,6.89-6.14,19-3.67,39.35-9.32,58.41a4.21,4.21,0,0,0-.09.49l-1.08,6c.91-.19,2-.09,2.68-.6,2.43-1.9,5-3.55,4.68-7.49-2.12-23.24,3.9-44.33,17.65-63.21,2.2-3,4.25-6.32,8.08-7.72.87,3.61-2.73,5.41-3.45,8.5-2.11,9-4.68,17.79-7,26.7-.18.68.07,2.09.42,2.19,1.64.5,1.76-1.06,2.13-2,3.3-8.77,4.53-18.29,9.3-26.5,2.47-4.25,5.63-8.1,8.53-12.1.64-.88,1.4-2.35,2.67-1.6s.15,2.07-.24,3c-3.63,8.91-5.67,18.22-7.36,27.64-.18,1-1.57,2.35.23,2.83,1.58.43,1.45-1.43,1.88-2.35,4.84-10.49,9.86-20.87,17.44-29.74,1.08-1.27,4-2.88,4.29-2.6,1.63,1.67-.31,3.25-1,4.78a143.79,143.79,0,0,0-9.8,33.59c-1.88,4.68-4,9.29-5.53,14.07-.48,1.42-1.82,4.37-.26,4.62,2,.34,4-1.79,4.49-4.32C854.36,661,855.09,656.65,855.84,652.3Zm-16.65,13.89c0-1.26.06-2.08,0-2.89-.1-1-.3-2.06-.46-3.09a17.23,17.23,0,0,0-1.39,2.87c-1.09,3.77-2.16,7.54-3,11.36-.31,1.38-.66,3.67,0,4.16,1.36,1,2.45-1,3.62-1.7C843,673.71,837.5,669.34,839.19,666.19ZM824.61,679c.29-3.35.48-4.82.51-6.29a30.53,30.53,0,0,0-.25-3.3,16.84,16.84,0,0,0-1.37,2.84q-2,7.08-3.82,14.22a8.13,8.13,0,0,0,.08,2.3,14.83,14.83,0,0,0,2.2-.7C827.09,685.48,824.35,680.87,824.61,679Zm1.48,15.75c1.41-.8,3.21,1,4.49-.72-1.53-.9-3.06-2.5-4.57-2.47s-2.94,1.7-4.4,2.66C822.94,695.84,824.6,694.35,826.09,694.72Z" transform="translate(0 0.17)"/><path class="cls-13" d="M774.4,698.84c-1.58-23.16,6.41-43.93,16.33-64.2.59-1.19,1.06-3.49,2.7-2.93,1.85.64.25,2.55.12,3.87-1.95,21-5.82,42-4.21,63.26Z" transform="translate(0 0.17)"/><path class="cls-13" d="M753.49,698.84a207.52,207.52,0,0,1,10.12-49c1.34-4,2.13-8.56,6.3-11.08,1.74,3.9-.52,7.6-.62,11.41a329.66,329.66,0,0,0,2.13,48.66Z" transform="translate(0 0.17)"/><path class="cls-13" d="M735.57,698.84c1.7-19.42,8-37.53,16.17-55.06.5-1.06.57-2.82,2.4-2.54a8.11,8.11,0,0,1-.06,3.16c-4.54,18-2.77,36.24-1.58,54.44Z" transform="translate(0 0.17)"/><path class="cls-13" d="M711.67,698.84c1.35-9.24,2.35-18.59,7-26.93.79-1.42,2.63-2.25,4-3.36,1.4,1.71-.52,2.93-.68,4.42-.94,8.72,1.1,17.25,1.61,25.87Z" transform="translate(0 0.17)"/><path class="cls-13" d="M688.77,698.84c1.05-3.56-.21-7.82,3.28-10.64,2.26,3.41-.34,7.14.7,10.64Z" transform="translate(0 0.17)"/><path class="cls-14" d="M.07,23.61c0-6.43.12-12.87-.07-19.3C0,2.17.41,1.69,2.54,1.77,8,2,13.38,1.83,18.8,1.83c0,3.12,2.27,4.72,4.59,5.76,5.08,2.29,10.28,4.32,15.51,6.21,9.41,3.41,19,6.57,26.21,14,8.41,8.6,12.58,18.75,9.34,31A62.57,62.57,0,0,1,58,87c-10,10-10,26.9,3.26,36.49,1.37,1,3.52,1.56,3.92,4.91-7.3-4.15-14.47-4.31-21.88-3.8-7.21.5-14.36,1.39-21.52,2.18-9.16,1-11.81-1.1-14.25-10-3.7-13.58-4.59-27.41-4.9-41.4C2.52,71,3.61,66,.07,62.23V30.55c2.28.44,2.83,2.52,3.57,4.17C11.72,52.78,19.91,70.77,29.73,88c4.16,7.29,8.13,14.68,14.66,20.3-1.13-5.4-4.91-9.36-7.72-13.75a232.55,232.55,0,0,1-20-38.14C12.06,45,7.49,33.56.07,23.61Z" transform="translate(0 0.17)"/><path class="cls-14" d="M75,1.83c0,6.24,2.29,12,3.84,17.92a62.47,62.47,0,0,1,1.8,21.87c-2.18-1.59-1.82-3.3-1.76-4.5.32-6.19-3-10.19-7.62-13.51C59.76,15.34,48.15,7.29,34.34,3.3c-.78-.23-1.6-.45-1.74-1.47Z" transform="translate(0 0.17)"/><path class="cls-14" d="M.07,122.62c1.8,1.88,3.55,3.8,5.42,5.61.83.81,2.14,1.56,1.38,2.77s-2,.49-3.1.06-2.34-1.23-3.7-.52Z" transform="translate(0 0.17)"/><path class="cls-14" d="M744.1,41.3c.86,11.38-3.37,20.56-12.05,27.86-10.79,9.09-20.58,19.52-33.88,25.27-2.08.9-4.09,2.54-6.6,1.16a31,31,0,0,1,5-3.18c4.06-1.66,6.91-4.49,8-8.58,6.07-23.43,9-47,2-70.81-.77-2.64-1.06-7.23-4.45-6.78-3,.39-3.08,4.87-3.41,7.81-1.3,11.62,1.53,23,2.25,34.54,2.33,37.35-21.79,58.81-58.66,51.69-6.39-1.23-12.66-3.06-19-4.55C608.1,92.16,593.92,100,589,114.57c-1.41,4.19-2.74,8.39-4.19,12.56-.49,1.42,1.5,4.59-1.64,3.94-2.06-.42-.32-3,.05-4.73,2.55-11.75-4.38-20.66-9.43-30C570,89.4,565.65,82.76,561.22,76.2c-5.51-8.15-3.65-14.53,3.55-20.63,13.46-11.4,28.52-20.18,44.33-27.82,6.06-2.93,11.95-6.16,16.81-10.91,1.56-1.52,3.79-3.1,2.81-5.61-1.07-2.76-3.8-3.52-6.55-3.63-6.93-.3-13.23,2.23-19.39,4.87-18.57,8-35.49,18.06-46.54,35.87-3.67,5.91-5.94,11.92-5.52,18.89a9.93,9.93,0,0,1-.67,2.8c-.52-.77-1.43-1.51-1.49-2.31-1-13.48-4.91-26.61-3.37-40.47,1.48-13.38,11.2-19.83,20-27.42h95.38a101.2,101.2,0,0,1-5.87,9C644.48,21.5,634.13,34,623.83,46.58c-1.55,1.89-2.87,3.86-2.65,6.46a53.25,53.25,0,0,0,4.4-4.08q4.33-5,8.41-10.15c10.18-12.92,23.63-23.31,30.22-39h72.15c2,12.28,7.1,23.9,7.59,36.48Zm-132,25.89-.89-1.42A8.11,8.11,0,0,0,609,67.43c-3.32,5-6.91,10-9.67,15.32-2.42,4.71-5.65,9.28-5.62,15q4.06-6.64,8.13-13.29c1.36-2.24,2.66-4.51,4-6.77C607.9,74.2,610,70.75,612.11,67.19Z" transform="translate(0 0.17)"/><path class="cls-14" d="M775.49-.17c-6.41,9.82-12.63,19.76-19.28,29.42-5,7.23-7.67,14.61-4.33,23.28a8.71,8.71,0,0,1,.07,2.85c-.93-.63-2.42-1.09-2.69-1.93-1.26-4-2.18-8.12-3.22-12.2-.08-1.64-.15-3.27-.22-4.91.17-12.19,4.62-24.19,1.54-36.51Z" transform="translate(0 0.17)"/><path class="cls-15" d="M372.87,132.6A147.82,147.82,0,0,1,342,98.26c-3.09-4.81-6.85-9.36-8.26-15.13a5.6,5.6,0,0,0-1-1.54,8,8,0,0,0-.88,2.08c-1.28,11.42-4.69,22.66-2.78,34.35a19.72,19.72,0,0,1-.15,4.19c-2.15-.12-2.53-2.08-3-3.43a60.61,60.61,0,0,1,1.3-46.11c2.22-5.14,1.88-9-.44-13.39a10.79,10.79,0,0,0-1.4-1.71,7.13,7.13,0,0,0-.83,2.21c-.25,19-11.85,34.28-16.92,51.7-.21.73.46,2.26-1.16,2-.4-.08-.71-1.36-.82-2.11-1.8-12.66.74-25,3.11-37.27.3-1.54,1.67-3.89.13-4.37s-1.83,2.25-2.52,3.61c-5.18,10.28-11.38,20.16-12.66,32A3.54,3.54,0,0,1,293,107c-1.56-.37-1.14-1.8-1.2-2.83-.87-16,1-31.57,7.61-46.38.57-1.27,2.14-3.21.75-4s-2.07,1.69-2.73,2.87C290.12,69.69,281,82,281.25,98c0,.39-.32.79-.5,1.18a8,8,0,0,1-1.12-1.3c-1.34-2.38-1.46-5-1.45-7.65.05-23.36,7.2-44.74,18.06-65.11.64-1.21,2.44-3,1.09-3.88-1.93-1.25-2.56,1.44-3.33,2.54-8.63,12.47-18.59,24-25.32,37.78a36.05,36.05,0,0,0-4,13.16c-.08,1.13.65,2.92-1.32,3.06-.26,0-.87-2.26-1-3.51C261,59.63,264.45,46,271.64,33.41,278.07,22.1,284.9,11,291.56-.17h51.61c10.59,7.13,21.34,14,31.72,21.46C380,24.91,385,28.74,388.78,33.88a8,8,0,0,1,.79,2.18,6.28,6.28,0,0,1-2.14-.49c-22.12-14.39-48.81-18.29-71.64-31-1-.56-2.16-1.29-3.11-.26-.24.26.76,1.53,1,2.39,1.77,5.57,5.67,7.12,11.34,8.31,25.78,5.38,47.35,18,63.2,39.44,1.21,1.63,2.25,3.3,1.39,5.45a46.5,46.5,0,0,0-3.59-3,157.5,157.5,0,0,0-32.34-17.08c-.92-.37-2.13,0-3.2,0a22.8,22.8,0,0,0,2.19,1.76c6.32,3.9,12.56,7.95,19,11.61a59.84,59.84,0,0,1,19.64,18.5c.67,1,2.4,1.88.93,3.2-.38.35-2.09-.4-2.94-1-9.24-6.48-19.31-11.4-29.7-15.71a18.08,18.08,0,0,0-4.22-.72c1,.91,2,1.92,3.11,2.72,11.27,8.17,21.74,17.19,30,28.48,1,1.34,2,4.41,1.57,4.71-2,1.46-2.91-1.16-4.27-2-4.31-2.75-8.37-5.91-12.71-8.61-11.19-7-23.52-12-34-20.13-1.83-1.42-5.78-3.92-6.54-2.12-1.13,2.69,1.45,5.51,4.89,6.76a81.06,81.06,0,0,1,20.69,11.49c9.55,7.1,15.26,17.2,22,26.54.57.8.41,2.11.6,3.18-.77-.5-1.54-1-2.32-1.49-9.77-6.09-17.27-14.8-25.86-22.25-1.1-.94-2.17-2.12-3.9-1.52l1.62,3.17c7.74,15.25,13.42,31.53,23.1,45.8C373.18,132.27,373,132.43,372.87,132.6Zm-43.81-91c-2.58-.53-3.74-.31-3.19.66,1.73,3.05.87,8.26,6.89,7.91,4.63-.27,9,1.37,13.41,2.86,2.28.77,3.95,3.51,6.9,2.27-2-1.26-4-2.59-6.1-3.76C340.54,47.93,334.08,44.38,329.06,41.6Zm8.76-7.77c-.74-1-1-1.67-1.49-2q-8.28-4.89-16.6-9.66c-1.48-.86-1.57-.09-1.4,1.18.56,4.35,13.74,12.46,18.11,11.08A10.13,10.13,0,0,0,337.82,33.83Zm-14.95,13.7L320,42.22c-.31.5-.81,1-.9,1.5-1.18,6.64-4.84,12.22-7.68,18.15a11.76,11.76,0,0,0-.6,2.17c.44,0,1.16.25,1.28.08C315.69,58.65,319.24,53.15,322.87,47.53ZM301,17.51c.94-4.23,6.65-4.4,7.35-8.56.32-1.93-1.47-4.22-2.3-6.35-2.06,1.06-1.42,3.37-2.29,5-1.31,2.44-2.36,5-3.51,7.56C300,15.88,299,16.71,301,17.51Zm14.73,11-3-5c-.9,3.3-1.74,6.62-2.73,9.89-.47,1.54.67,1.29,1.16,1C313.22,33.05,315.3,31.69,315.75,28.51Z" transform="translate(0 0.17)"/><path class="cls-15" d="M286.59-.17c-9,14.54-20.46,27.46-28.36,42.76-2.21,4.27-4.5,8.39-5,13.27a10.37,10.37,0,0,1-.76,2.26c-.54-.71-1.37-1.34-1.58-2.13-2.49-9.39-.14-18.32,3.27-26.94,3.9-9.85,8.36-19.49,12.57-29.22Z" transform="translate(0 0.17)"/><path class="cls-15" d="M260.79-.17C254.93,10,245.44,17.51,240.52,28.32c-1.36,3-3.37,5.69-3.48,9.15,0,.82.45,2.34-1.15,2a2.77,2.77,0,0,1-1.56-2.18A32.64,32.64,0,0,1,236,29.6c3.86-10,7.93-19.85,11.92-29.77Z" transform="translate(0 0.17)"/><path class="cls-15" d="M376.91-.17c3.53,2.87,7.09,5.71,10.58,8.64a7.24,7.24,0,0,1,1.2,2c-.57.09-1.26.44-1.68.23-9-4.4-19.2-5.83-28-10.88Z" transform="translate(0 0.17)"/><path class="cls-15" d="M233-.17c-2.48,7.6-8,14.33-6.63,23.05,0,.27-.5.63-.78.95-.56-.73-1.42-1.39-1.64-2.21-1.43-5.33-.88-10.68.1-16,.36-1.92.68-3.84,1-5.77Z" transform="translate(0 0.17)"/><path class="cls-15" d="M373.34,132.1l.1,1.2-.57-.7C373,132.43,373.18,132.27,373.34,132.1Z" transform="translate(0 0.17)"/><path class="cls-16" d="M527.46-.15c1.88,4.65,5.47,6.37,10.39,6.4,29.21.21,51.5,15.49,72.81,32.86.62.51,1.54,1.71,1.4,1.89-1.11,1.4-2.28.2-3.44-.16A275.87,275.87,0,0,1,565.8,22.93c-3.1-1.58-6.44-2.95-10.1-2.88,1.09,3.38,4.84,3.82,6.95,6.14,3.25,3.59,7.35,6.53,10.14,10.4C582.45,50,595,60.36,607.43,71c1.1.94,3.37,1.88,2.37,3.38s-2.82-.09-4.15-.76C581.4,61.24,557.06,49,538.89,27.9c-.38-.45-1.07-1.16-1.4-1.06-1.47.44-1,1.82-.77,2.7,3.21,15,3.61,30.58,10.91,44.58.83,1.58,3.27,3.77,1.35,5.14-2.32,1.65-3.74-1.52-5.09-2.89A50.72,50.72,0,0,1,530.71,52.3c-3-12.61-8.73-25.19-4.27-38.63,2.1-6.36-4.67-8.86-5.64-13.82Z" transform="translate(0 0.17)"/><path class="cls-17" d="M516.8-.15c6.53,15.79,3,32.05,2.15,48.15-.55,10.48-2.76,21,1.34,31.26.28.7.21,2.25-.08,2.35-1.64.57-2.3-.84-3-1.93-5.87-9.53-8.73-20.11-10.88-30.93-3.23-16.28-4.77-32.58-.22-48.9Z" transform="translate(0 0.17)"/><path class="cls-17" d="M502.14-.15c-.16,11.5-1.88,22.83-3.57,34.17-1.83,12.28-4.21,24.54-1.95,37l-2.51,0c-9.69-23-13.05-46.6-8-71.17Z" transform="translate(0 0.17)"/><path class="cls-17" d="M483.49-.15c-3.15,13.45-6.29,26.9-7.92,40.63A73,73,0,0,0,477,66.61l-1.21,1.7c-3.28-2.12-4-5.62-5-9-5.39-18.65-8.85-37.55-7.88-57.06a7.42,7.42,0,0,0-.77-2.41Z" transform="translate(0 0.17)"/><path class="cls-16" d="M590.09-.15c7.75,4.16,16.29,7.07,22.45,13.71,1.09,1.18,3.56,2.36,2.49,4.17-1.18,2-3.13.14-4.65-.39A226.86,226.86,0,0,0,562,6.18,59.4,59.4,0,0,1,542.12-.15Z" transform="translate(0 0.17)"/><path class="cls-16" d="M452.84-.15c-1.49,9.25-5.18,18-6.08,27.42-.58,6.17-1,12.21.47,18.31.35,1.47,1.83,3.9-.35,4.45-1.87.46-2.19-2.3-2.84-3.83A89,89,0,0,1,437,3.77a34.36,34.36,0,0,0-.12-3.92Z" transform="translate(0 0.17)"/><path class="cls-16" d="M427.52-.15c-2.11,8.94-5.11,17.78-2.6,27.16.27,1,.83,2.44-.58,2.78-.63.15-1.83-.95-2.39-1.74-6.06-8.45-6.51-18.44-7.76-28.2Z" transform="translate(0 0.17)"/><path class="cls-16" d="M396.87-.15a13.69,13.69,0,0,0-.45,9.58c.36,1.23,1.8,3.13-.74,3.56-1.72.3-2.89-1.17-3.11-2.77-.48-3.44-.7-6.91-1-10.37Z" transform="translate(0 0.17)"/><path class="cls-16" d="M494.11,71l2.51,0c.77,1.33,1.12,3.72.07,3.83C494.43,75.14,494.44,72.72,494.11,71Z" transform="translate(0 0.17)"/><path class="cls-16" d="M475.81,68.31l1.21-1.7c1.19,1.08,2.18,2.55.69,3.68C476.92,70.89,476.13,69.33,475.81,68.31Z" transform="translate(0 0.17)"/><path class="cls-18" d="M1482.28,1.84c0,4.63-.16,9.26.06,13.88.15,3-.66,3.82-3.82,3.76-17.3-.33-34.49.48-51.37,5-15.68,4.21-30.92,9.09-43.2,20.5-1.73,1.61-3.41,3.59-6.5,4.15,1.86-17.3,8.26-32.66,16.71-47.31Z" transform="translate(0 0.17)"/><path class="cls-19" d="M1482.28,84.83v22.88q0,41.25,0,82.5a19,19,0,0,1-1.81,8.09c-7.44,16.57-15.49,32.88-21.38,50.12-2.57,7.5-3.76,15.35-5.5,23.06-.11.53.25,1.16.94,1.88,8.6-23.51,14.39-48.05,27.71-69.84V223c0,13.09-.08,26.18.07,39.26,0,2.77-.93,3.76-3.4,4.94-14.78,7-25.65,17-26.59,35-.42,7.95-.65,15.87-.69,23.81,0,1.56.47,4-1.63,4.1-2.61.15-2.17-2.47-2.18-4.15-.07-10.28-1.21-20.57-7.87-28.65-9.66-11.71-19-23.76-30.25-34.08a94.38,94.38,0,0,1-12.31-13.58,14.8,14.8,0,0,1-1.84-15.44c3.52-8.46,10.07-14.67,15.71-21.53,13.75-16.73,30.87-29.77,47.52-43.32,6.66-5.43,13.07-11.2,17.35-18.86,3.24-5.79,1.42-9.25-5.29-9.5a29.47,29.47,0,0,0-15.58,4.23c-21.66,12.24-40.73,27.68-55.29,48.05-8.08,11.31-14.11,23.82-16,37.91-.86,6.21.34,12.16,2.61,17.94.52,1.34,1.64,3-.15,3.91-1.61.82-2.39-1-2.76-2.1-7.29-21.63-19-42-18.28-65.92a42.06,42.06,0,0,1,10-26.28c18.3-22.4,42-37.43,67.2-50.58C1455.89,101.27,1470,95.83,1482.28,84.83Z" transform="translate(0 0.17)"/><path class="cls-19" d="M1348.54,128.08c-.92-16.73,2.42-33,5.23-49.3,1.12-6.54,6-8.66,11.11-10.62a683.57,683.57,0,0,1,65.28-21.37c16.44-4.41,33.56-5.07,50.11-8.9,2.2-.51,2,.91,2,2.24,0,9.94,0,19.88,0,29.82,0,1.64-.09,2.81-2.28,2.84-18.44.31-33.7,9.34-49.08,18.1-25.83,14.71-49.11,32.82-70.77,53.11-1.68,1.57-3,3.57-4.7,5.08-1.27,1.12-2.35,3.41-4.19,2.77-1.57-.54-1.26-2.9-1.4-4.44C1349.3,141,1349,134.52,1348.54,128.08Z" transform="translate(0 0.17)"/><path class="cls-14" d="M1238-.17h35.75c-.15,5.54,3.34,9.33,6.52,13.2,6.16,7.5,13.19,14.42,16.47,23.84,3,8.56-.77,14.89-9.7,16.19a185.06,185.06,0,0,0-24.16,5.41c-3.29,1-4.31.37-4-2.91.65-6-.36-11.83-1.31-17.67-1-6.32-4.33-9.32-10-9.71-3.73-.25-5.15,1.44-4.75,5s2.19,6.52,3.49,9.71c4.2,10.24,7.68,20.68,8.89,31.75.34,3.11,0,6-2.78,7.93-7.1,4.78-15.22,7.1-23.37,9.28-2.28.6-3.55,0-3.2-3.09a82.92,82.92,0,0,0,0-12.31c0-1.31.23-3.49-1.81-3.37-1.71.09-1.06,2.08-1.19,3.26-.43,3.59-.68,7.21-1.08,10.81a6.5,6.5,0,0,1-3.59,5.54c-8.77,4.43-18.13,7.08-27.66,9.22-1,.23-2.07.4-2.6-.69-.45-.93.41-1.45,1-1.94,4.42-3.38,7-8.25,10.26-12.59,1.52-2.06,2.8-4.6,1.25-7.92-4.41,4.51-6.56,9.72-9.48,14.42-8.1,13-24.35,16.71-36.58,8.19-1.9-1.32-4.12-3-3.77-5.36.3-2.09,3-2.31,4.79-3,6.54-2.28,13.44-3.49,19.61-6.84,6.84-3.72,11-9.44,14-17.7-1.68,1.12-2.34,1.5-2.94,2-13.49,10.52-29.27,15.69-45.73,19.13-8.12,1.7-13.65-.81-17.43-7.07-1.42-2.35-2.63-5-.88-7.38,1.56-2.16,4.12-2,6.77-1.68,11.71,1.66,23,.52,33.63-5.26,6.54-3.55,12.94-7.3,19.17-11.35,1.83-1.19,5.47-2.73,4.51-4.35-1.52-2.57-4.34.07-6.37,1C1164,60.9,1148.22,68.73,1130.57,71c-11,1.42-9.58,2.15-15.83-10.28l.11-.45c4.26-3.16,4.38-9.76,10.79-11,7.77-1.49,15.45-3.46,23.17-5.19,13.77-3.09,27.06-7.34,38.86-15.36a20.88,20.88,0,0,0,6-5.76c.57-.87,1.08-1.82.5-2.75-.79-1.27-2.06-.82-3.09-.35-1.95.88-3.83,1.92-5.74,2.89-13.09,6.63-26.1,13.71-40.39,17.26-11.68,2.91-24.74,7-33.6-12.38,9-.21,6.93-4.24,7.39-7.18.77-4.84,2.55-9,6.24-12.37s8-4.73,12.84-5.38c4-.53,8.53.62,11.84-2.88h83.41c.45.87,0,1.59-.4,2.29-5.62,10-10.85,20.29-17.07,30-2.85,4.45-5.6,9-8.41,13.49,1.54.86,2.1.1,2.6-.46A166.79,166.79,0,0,0,1238-.17Z" transform="translate(0 0.17)"/><path class="cls-14" d="M1321.45-.17c3,15.07-5.75,24.12-16.55,32.13-2,1.48-3.86,2.11-5-1a105.54,105.54,0,0,0-17.2-31.17Z" transform="translate(0 0.17)"/><path class="cls-20" d="M1124.09,104.86c.52,3,1,6.08,2.12,12.45-5.71-18.52-10.42-33.83-15.13-49.13q-2-9.21-3.91-18.42l-1.44.3,3.46,18.2,10.8,78.15c-7.63-28.18-22.3-57.41-24.8-95-8.61,27.74-20.17,48.12-38.83,66.71l33.16-74.24q3.62-7.87,7.22-15.75l-1.26-.54q-3.7,7.41-7.4,14.83-17.28,27.15-34.54,54.32l-1.84-.95,27.53-49.35,1.75-2.48q2.49-4.26,5-8.5c.26-.47.53-.93.8-1.39l1-1.46,2.8-4.61,1.92-3.29-.93-.58-2,2.83-3.28,5.63a.67.67,0,0,0-.32.74l-.83,1.1L1079.76,43l-2.45,3.41-24.39,32.29-.83-.93L1096.89,8l5.18-8.13H1110c.39,2,.77,4,1.16,6,.88,3,1.77,6,2.66,9l-.87-9-1-6h7.94l1.17,9.86c2.27,12.59,4.5,25.19,6.86,37.76.21,1.11,1.24,2.07,1.89,3.1.21-1.24.82-2.56.59-3.71-2.47-12.39-5.08-24.76-7.64-37.13-.63-3.29-1.25-6.58-1.88-9.88h7l2.31,15.94c.25,1.29.51,2.57.76,3.85l1.2,6.05.74,2.89,1.31,6,.65,2.9,3.21,13.94,8.7,27.71,0,0,1.06,1-.1-.07,7.57,12.55c-13.89-11-17.89-25.67-23.17-39.55a19.19,19.19,0,0,0-2.14-3.33,15,15,0,0,0-.4,3.9c2.2,13.15,4.79,26.25,6.57,39.45.47,3.46-1.51,7.25-4.22,18.85,3.85-34.39-11.11-56.74-13.86-81.41q-1.07-5.07-2.14-10.16l-2-4.6.12,4.88c.65,3.28,1.31,6.57,2,9.86,4.4,25.56,8.8,51.12,14.53,84.44L1126,104.82q-8.58-37.15-17.17-74.32l-1-4.85-.94-4.78-1,.15.46,4.66.72,4.86Q1115.58,67.69,1124.09,104.86Zm-28.57-84.78-1.14-.88-2.52,4.32,1.12.65Zm1.53-2.77c-.44-.3-.87-.66-.93-.6a2.59,2.59,0,0,0-.89,1.1c-.09.3.26.72.42,1.09Z" transform="translate(0 0.17)"/><path class="cls-20" d="M1167.6-.17c10.45,25.29-7.87,47.58-7.85,71.84V55.92l-4.51,14.31c5.65-30.43-11.82-48.48-11.47-70.4h9.93c2.12,14.48,4.23,29,6.43,44,10.22-15.79,0-29.63-2.46-44Z" transform="translate(0 0.17)"/><path class="cls-20" d="M1138.81-.17c3.44,25.49,6.91,51,10.25,76.46.15,1.18-.89,2.51-1.38,3.77l.1.07-1.06-1,0,0q-3.45-13.89-6.91-27.79-1.75-7-3.52-14l-.52-2.87c-.49-2-1-4-1.45-6l-.6-2.88-1.35-6c-.18-1.3-.37-2.6-.56-3.9l-2-15.86Z" transform="translate(0 0.17)"/><path class="cls-20" d="M1094,8.66l-46,48.85c7.2-20.31,25.36-34.69,38.29-52.73l-.08,0,1.07-1.07-.09.08,1.09-1.07-.09.09,1.08-1.08-.08.09,2-2h8.94l-5.15,7.74C1094.61,7.93,1094.29,8.3,1094,8.66Z" transform="translate(0 0.17)"/><path class="cls-20" d="M1086.23,4.78c-13.75,8.21-23.89,22-34.1,25.13L1078.24-.17h10.92l0,2,.08-.09-1.08,1.08.09-.09-1.09,1.07.09-.08-1.07,1.07Z" transform="translate(0 0.17)"/><path class="cls-20" d="M1181.5-.17c.33,14.31,9.12,25.22,13.51,38.14L1174.55-.17Z" transform="translate(0 0.17)"/><path class="cls-20" d="M1063.34-.17c-9,5.54-17.76,11.65-35.14,10.85,13.59-1.61,20-5.07,25.21-10.85Z" transform="translate(0 0.17)"/><path class="cls-20" d="M1193.42-.17V23.34c-1.38-6.54-3.18-15-5-23.51Z" transform="translate(0 0.17)"/><path class="cls-20" d="M1252-.17h0Z" transform="translate(0 0.17)"/><path class="cls-20" d="M1047.54,85l2.38-4.5.8.9-2.22,3Z" transform="translate(0 0.17)"/><path class="cls-20" d="M1052.92,78.72l-1.42.53.59-1.46Z" transform="translate(0 0.17)"/><path class="cls-20" d="M1049.92,80.47l1.4-.52-.6,1.42Z" transform="translate(0 0.17)"/><path class="cls-21" d="M1047.54,85l1-.6Z" transform="translate(0 0.17)"/><path class="cls-22" d="M929.46,48.15a81,81,0,0,1-2.14-21.22c1.22-.15,2.37-.46,2.1-2-.07-.41-.71-1.07-1-1-1.65.13-2.1,1.39-2.27,2.8-8.57,12.77-17.77,25.2-21.9,40.34l-1.84,0c-2.57-11.7,2.25-21.82,7.08-31.87,2.19-4.56,5-8.83,7.51-13.26A20.12,20.12,0,0,1,924,14.16c5.06-3,8.28-7,8-13.15l1.16-1.18h21.34A30.48,30.48,0,0,0,964,11.6c7.7,11.08,11.93,23.82,17.33,36a37.61,37.61,0,0,1,3.48,16.57c0,1,.23,2.22-.93,2.5s-1.63-.81-2.1-1.69c-1.57-2.95-3-6-4.77-8.81a205.32,205.32,0,0,0-21.94-29.95,35.84,35.84,0,0,1-5.44-8.39,52.92,52.92,0,0,0-8.48-12.71c-1.35-1.49-2.15-4.17-4.86-3.56-1.4.32-.65,6.78.93,8.49,1.88,2,3.72,4.06,5.67,6,16.36,16.38,21.72,37.24,24.35,59.21l-2.21.08A105.43,105.43,0,0,1,952.2,50c-1.89-5.28-4.55-10.29-6.86-15.42-.52-1.81-.73-3.94-3.37-3.82-.4,0-1.14.7-1.1,1,.37,2.55,2.71,2.2,4.41,2.82-.7.6-2.46.57-2.18,1.55,3.87,13.42.14,27,.68,40.41-1.55,1.43-1.55,2.63.54,3.51a5,5,0,0,1,.56,3.59c-1.44,1.78-1.79,3.4.64,4.66a13,13,0,0,1,.49,6c-1.13.82-1,1.56.15,2.24.25,1.16.5,2.71-.48,3.22s-1.4-1-1.72-1.86c-5.55-15.53-12.15-30.75-14.3-47.3C931.16,49.6,930.9,48.83,929.46,48.15Z" transform="translate(0 0.17)"/><path class="cls-22" d="M927.29-.17a28.31,28.31,0,0,1-8.4,13.78c-8.5,7.88-16.88,15.9-25.22,24a39.56,39.56,0,0,0-7.76,9.57c-.66,1.23-1.23,2.88-2.9,2.19s-.81-2.34-.41-3.56a98.12,98.12,0,0,1,11.64-24.3c3.69-5.55,7-11.35,11.31-16.51.61-.74,2-1.62.45-2.81l-.09.09q2.25,1,1.27-1.26l-.06.06c1.68,1.33,2.12.24,2.38-1.2Z" transform="translate(0 0.17)"/><path class="cls-23" d="M964,11.6A30.48,30.48,0,0,1,954.55-.17H974.7c2.21,5.69,6.34,10.2,9.82,15,6.63,9.19,9.68,19.6,12,30.36.23,1.09.91,2.54-.6,3s-1.87-1.08-2.41-2C986.76,34.4,978.1,24,968.85,14.08,967.5,12.63,966.39,10.91,964,11.6Z" transform="translate(0 0.17)"/><path class="cls-23" d="M906,2.14c-8.52,4.56-15.3,11.32-22.42,17.63a41.73,41.73,0,0,0-9.74,11.74c-.49.94-1.3,1.73-2.34,1.31-2.09-.83-.11-1.93.13-2.7C875.11,19.22,881.87,9.93,887-.17h20.15c-.09.13-.27.28-.25.4a4.59,4.59,0,0,0,.24.8l.06-.06c-1.13-.28-1.58.11-1.27,1.26Z" transform="translate(0 0.17)"/><path class="cls-23" d="M993.67-.17c2.91,7.88,6.1,15.68,7.48,24a48.7,48.7,0,0,1,.47,6.4,1.77,1.77,0,0,1-.76,1.34c-.56.28-1.08-.13-1.27-.78-3.38-11.67-12.09-19.94-18.88-29.43-.26-.36-.07-1-.08-1.56Z" transform="translate(0 0.17)"/><path class="cls-23" d="M876.31-.17c-4.73,5.92-10.69,11-13.11,18.52-.24.74-.61,1.67-1.54,1.4s-.35-1.28-.43-2c-.55-4.8,2.29-8.54,3.94-12.67.67-1.7,2.58-3.08,1.66-5.29Z" transform="translate(0 0.17)"/><path class="cls-23" d="M933.21-.17,932.05,1l0-1.18Z" transform="translate(0 0.17)"/><path class="cls-23" d="M945.28,34.52c-1.7-.62-4-.27-4.41-2.82,0-.28.7-1,1.1-1,2.64-.12,2.85,2,3.37,3.82Z" transform="translate(0 0.17)"/><path class="cls-23" d="M926.1,26.65c.17-1.41.62-2.67,2.27-2.8.34,0,1,.64,1,1,.27,1.57-.88,1.88-2.1,2Z" transform="translate(0 0.17)"/><path class="cls-23" d="M945.52,88.24c-2.43-1.26-2.08-2.88-.64-4.66A7,7,0,0,1,945.52,88.24Z" transform="translate(0 0.17)"/><path class="cls-23" d="M965,75.34l2.21-.08c.27,1.12,1.44,2.79-.41,3.07C965.43,78.54,965.27,76.58,965,75.34Z" transform="translate(0 0.17)"/><path class="cls-23" d="M944.32,80c-2.09-.88-2.09-2.08-.54-3.51A4.47,4.47,0,0,1,944.32,80Z" transform="translate(0 0.17)"/><path class="cls-23" d="M929.46,48.15c1.44.68,1.7,1.45.2,2.36A1.93,1.93,0,0,1,929.46,48.15Z" transform="translate(0 0.17)"/><path class="cls-23" d="M946.16,96.45c-1.14-.68-1.28-1.42-.15-2.24A1.7,1.7,0,0,1,946.16,96.45Z" transform="translate(0 0.17)"/><path class="cls-23" d="M902.36,67l1.84,0a1,1,0,0,1-1,1.15C902.53,68.18,902.35,67.63,902.36,67Z" transform="translate(0 0.17)"/><path class="cls-13" d="M187.6,665.34c.45,2.53,2.45,4.66,4.49,4.32,1.56-.25.22-3.2-.26-4.63-1.58-4.77-3.65-9.39-5.53-14.06a143.79,143.79,0,0,0-9.8-33.59c-.64-1.53-2.58-3.11-.95-4.78.28-.29,3.21,1.33,4.29,2.59,7.58,8.88,12.6,19.26,17.44,29.74.43.93.3,2.79,1.88,2.36,1.8-.49.41-1.85.23-2.84-1.69-9.41-3.73-18.73-7.36-27.63-.39-1-1.59-2.25-.24-3s2,.72,2.67,1.6c2.9,4,6.06,7.85,8.53,12.1,4.77,8.21,6,17.73,9.3,26.5.37,1,.49,2.54,2.14,2,.34-.1.59-1.51.41-2.2-2.31-8.9-4.88-17.74-7-26.7-.72-3.08-4.32-4.88-3.44-8.49,3.82,1.4,5.87,4.69,8.07,7.71,13.75,18.89,19.77,40,17.66,63.22-.36,3.94,2.24,5.59,4.67,7.49.65.5,1.77.41,2.68.6l-1.08-6a4.21,4.21,0,0,0-.09-.49c-5.65-19.06-3.18-39.41-9.31-58.41-.76-2.33-2.71-6.62-1.3-6.89,2.84-.53,4,3.33,5.19,5.7,10.57,21.24,19,43.12,18.95,67.31H151.27c-2.11-3-6.65-1.24-8.66-4.4,3.57-1.74,7.29.23,11-.51,14.24-2.9,28.51-5.63,42.78-8.41,1.28-.25,2.6-.34,3.87-.63s3,.91,4-.68c.1-.15-.38-.85-.73-1.1-1.46-1-2.78-2.2-4.9-1.16-16.17,7.94-32.93,6.09-49.77,2.85a6.45,6.45,0,0,1-1-.21c-3.91-1.49-8.39-1.82-11.29-5.39,3.33-1.91,6.35,1.08,9.76.51,9-1.5,18.09-2.24,27.06-3.8a40.25,40.25,0,0,1,15.74.41c.94.21,2,.89,2.5-.38s-1-1.36-1.56-2c-3.07-3.11-6.55-2.3-10.51-1.82-14.9,1.84-29-.74-41.24-9.92-.92-.68-1.21-2.19-1.79-3.31,9.61,3.89,19.86,4.66,30,6.11,1.42.21,3.23.88,4.06-.74,1-2-1.4-2.24-2.28-3-12.36-11-21.35-24.62-29.76-38.63-.61-1-2.17-2.48-.91-3.46s2.25.94,3,1.78c9.32,10.9,21.93,17.94,32.46,27.4.75.67,1.54,1.53,2.49.73.22-.18-.45-1.57-.86-2.34-4.53-8.57-10.22-16.56-13.28-25.87-.43-1.29-1.9-2.45-.77-4a25.29,25.29,0,0,1,3.42,2.61c9,9.7,17.39,19.86,21.29,32.85C186.09,656.65,186.82,661,187.6,665.34Zm15.66,11.56c1.17.75,2.26,2.69,3.63,1.71.67-.49.32-2.78,0-4.16-.88-3.82-2-7.6-3-11.36a18.05,18.05,0,0,0-1.39-2.87c-.16,1-.37,2-.47,3.08-.08.81,0,1.64,0,2.9C203.68,669.35,198.22,673.72,203.26,676.9Zm16,11.14a14.86,14.86,0,0,0,2.2.71,7.79,7.79,0,0,0,.08-2.3q-1.81-7.12-3.82-14.22a16.84,16.84,0,0,0-1.37-2.84c-.09,1.1-.27,2.2-.25,3.3,0,1.47.22,2.94.51,6.29C216.83,680.88,214.09,685.49,219.22,688Zm.35,6.16c-1.46-1-2.92-2.64-4.4-2.67s-3,1.58-4.57,2.47c1.28,1.72,3.08-.07,4.5.73C216.58,694.36,218.24,695.85,219.57,694.2Z" transform="translate(0 0.17)"/><path class="cls-13" d="M266.78,698.84c1.58-23.16-6.41-43.92-16.33-64.19-.58-1.19-1.06-3.5-2.7-2.93-1.85.64-.25,2.55-.12,3.86,2,21,5.82,42,4.21,63.26Z" transform="translate(0 0.17)"/><path class="cls-13" d="M287.69,698.84a207.93,207.93,0,0,0-10.11-49c-1.35-4-2.14-8.56-6.31-11.09-1.74,3.91.52,7.6.62,11.42a329.46,329.46,0,0,1-2.13,48.65Z" transform="translate(0 0.17)"/><path class="cls-13" d="M305.61,698.84c-1.7-19.42-8-37.52-16.17-55.05-.5-1.06-.57-2.83-2.4-2.54a8,8,0,0,0,.06,3.15c4.54,18,2.77,36.25,1.58,54.44Z" transform="translate(0 0.17)"/><path class="cls-13" d="M329.51,698.84c-1.35-9.23-2.35-18.58-7-26.93-.79-1.41-2.62-2.25-4-3.35-1.39,1.71.52,2.93.68,4.42.94,8.72-1.1,17.24-1.61,25.86Z" transform="translate(0 0.17)"/><path class="cls-13" d="M352.41,698.84c-1.05-3.55.21-7.81-3.28-10.63-2.26,3.41.34,7.14-.7,10.63Z" transform="translate(0 0.17)"/></svg>