<svg id="Camada_8" data-name="Camada 8" xmlns="http://www.w3.org/2000/svg" viewBox="0 0 1200.12 692.16"><defs><style>.cls-1{fill:#b1834f;}</style></defs><path class="cls-1" d="M565,224.06a40.34,40.34,0,0,1,3.09-13.9,22.2,22.2,0,0,0,2-10.67c-.15-1.52-.18-3.33-2.09-3.42-3.48-.16-3.25-2.56-3.31-5.24-3.49,1.6-5.93,4.54-9.39,5.7-.78.26-1.56,1.25-2.17,1.12-4.68-1-6.79,1.26-9,5.18-1.67,3-5.14,1.1-7.45-.55s-4-1.95-6.15.64c-2.64,3.13-7.58,2.42-10.5-2a205.54,205.54,0,0,1-11.79-20.67c-1.92-3.77.29-7.1,4.72-7.08,2.94,0,3.92-1,4.77-3.47,1.53-4.58,6.4-4.77,10.22-6.94-1.77-2.49-3.72-4.71-4.69-7.5q-2.72-7.84,5.46-9.23c11.12-1.88,14.09-.43,19.7,9.59,1,1.74,1.9,3.51,2.91,5.23.67,1.12,1.43,2.67,3,1.91,1.36-.65.51-2,.13-3.07-.68-1.87-1-3.94-2.07-5.56-2-3.06-3.24-6.08-1.29-9.85-4.1-.2-7.71-.63-11.32.28-4.59,1.15-12.31-2.35-13.42-6.86-.82-3.35-2.48-3.06-4.56-2.31a16.06,16.06,0,0,1-4.88.67c-3.58.2-6.3-1.2-7.55-4.49-1.14-3,.15-5.37,2.76-7.28a6.68,6.68,0,0,0,2.7-7.07c-1.72-5.84-.07-11,1.86-16.32,2-5.58-.23-8.3-6.07-7.69-5.09.54-7.9-2.67-5.92-7.4,1.6-3.8,1.53-6.62-1.24-10-3.16-3.8-3.26-8.7-1.95-13.31a8.8,8.8,0,0,0-.92-7.57c-3.25-5.31-4.79-11.14-5.65-17.27-1.11-7.9-6.43-12.63-13.33-15.38C471,18.12,470.68,18,471,7c.06-2,0-4,0-6h550c5.55,6.94,3.54,11.92-5.26,14.19-5.6,1.44-10.88-.27-16.28-.71a19.56,19.56,0,0,0-5.08-.28,9.7,9.7,0,0,1,.88,2.24c.74,5.23,3.38,7.32,8.9,6.7,3.8-.42,6.18,2,5.91,6.21-.1,1.65,0,3.3,0,5.46,3.75-.82,7.26-1.33,10.66.38a7.73,7.73,0,0,1,4.48,7.14c.17,3.12-1.3,5.36-4.08,6.08-5.22,1.35-7.23,5.92-10.34,9.4-2.88,3.23-5.76,5.08-9.5,1a3.47,3.47,0,0,0-5-.24c-2.06,2.2-1.9,5.26-1.13,8s4.52,4.66,2.46,8c-1.77,2.88-5.21,1.39-7.84,2a11.23,11.23,0,0,0-5,3c-6.09,5.55-11.36,5.92-18.22,1.42-1.94-1.28-1.94-1.28-5.77.73,4.41,1.83,8.49,3.49,12.54,5.22a68.21,68.21,0,0,1,6.73,3.09c3,1.7,4.21,4.48,4.11,7.92s-2.15,5.14-5,6c-2.69.84-4,2.37-2.91,5.06,2,5-1.11,7.12-4.91,7.67s-5.15,2.46-6,5.82c1.83.42,3.68.8,5.5,1.29,5.52,1.48,6.51,3.36,6.4,9.09-.17,9.74-1.31,19.52,2.33,29.08,2.08,5.46.19,7.74-5.67,7.88-3.1.07-6.27.62-9.36-.71-2.64-1.14-4.63-2.56-4.77-5.69-.19-4.46-2.79-5.39-6.45-4.06-3,1.1-5.4.27-7.87-1.47-2.25-1.59-4.78-1.15-7.44-1.24-5.89-.19-5.75,3.5-8,6.51-2.61,3.51-3,9-9.75,10.16,6.69,1.53,11-.85,15.48-3,6.39-3,8.65-2.31,12.23,3.9,1,1.75,2.21.75,2.83.52,6.86-2.44,13.76,1.44,20.68-.34,2.26-.59,4.15,2,5.17,4.11s-.48,3.92-2.06,5.13c-2.88,2.23-5.9,4.72-9.55,5.09-12,1.22-19.88,8.62-26.55,17.53a46.59,46.59,0,0,1-20.29,15.47c-8.7,3.53-17.59,6.61-26.44,9.79a20.35,20.35,0,0,1-5.79,1.26c-5.65.26-11.41-.63-13.57,7.1-.91,3.29-5,4.85-8.4,5.7-14,3.51-26.59,10.12-38.51,18.08a8.77,8.77,0,0,0-2.81,2.74c-5.11,9.18-12.76,15.5-22,20.15-15.28,7.66-28.57,18.67-44,26.08-6.43,3.07-12.49,4.23-19.06,1.32-3-1.36-4.64-.85-4.61,2.85a26.93,26.93,0,0,1-.81,5.38c-1.16,5.77-2.1,6.48-7.67,5-3.16-.85-4.17-.22-2.81,3,.88,2-.41,3.91-.48,5.87-.17,5.21-5.2,9.4-2.58,15.47.87,2-2.07,5.36-4.47,6.74-4.33,2.5-6.14,7.41-10.29,10a3.06,3.06,0,0,0-.82,2.17c-.2,4.26-.48,8.36-5.44,10.17-1.18.43-.61,2.12-.82,3.23a12.4,12.4,0,0,1-6.09,9c-4.58,2.82.41,4.41,2,5.74,4.45,3.69,5.39,9.06,1.67,13.47-1.31,1.55-1.69,3.52-2.6,5-3,4.77-2.66,11-6.91,15.07-1.37,1.3-1.9,2.07-.1,3.39a5.87,5.87,0,0,1,2,2.71c1.42,4.41-6.49,16.33-11.06,16.82-.94.1-1.8-.13-2.71.69-6.6,5.92-12.84,4.42-15.68-3.86a3.59,3.59,0,0,0-3.19-2.89c-3.46-.82-6.55-2.38-10.36-2.83-4.49-.52-5.92-5.62-5.9-10.34,0-5.59-.33-5.78-5.44-3.4-2.41,1.13-4.72,2.46-7.09,3.66-6.68,3.4-13.23.17-14.25-7.27-.38-2.75-.69-4.7-4-5.13-1.91-.24-2.82-2.17-3-4.13-.3-2.75-1.72-5-3.27-7.14-1.14-1.56-2.08-3.21-4.66-1.1-2.11,1.73-4.79.84-5-2.28-.22-2.78-1.42-3.31-3.78-3.14-2.8.19-4.65-1.09-5.87-3.7a34.85,34.85,0,0,0-3.86-6.38c-2.49-3.3-3.41-5.88.35-9.35,3.33-3.06.13-11.37-4.37-12.78-2.91-.9-5.91-1.66-5.7-5.73.1-1.92-1.57-1.77-2.8-2.13-3.66-1.06-5.25-3.21-5.09-7.33.52-13.7,2.15-16.06,16.54-21.45,2.58-1,1.28-3.08,1.49-4.69.27-2,.12-4.3-1.9-5.26s-2.69,1.37-3.58,2.58c-2.83,3.82-5,8-9.21,10.87-2.23,1.55-3.81,3.06-6.49,1.93-3-1.27-6-3-5.8-6.7.28-4.8-1.72-7.79-5.68-10.17-2.18-1.31-3.57-3.33-2.42-6.34,1.06-2.8-.87-4.75-2.73-6.44-3.89-3.56-8.91-5.92-7.89-13.05.44-3.06-3-6.36-3.68-10.1-1.05-6-.55-11.07,5.13-14.8,2.62-1.71,1.15-3.92-1-4.78-7.29-2.91-10.07-11.38-5.51-18.56,3-4.71,5.33-10.6,13.15-8.75,2.75.65,2.12-2.59,2.63-4.35,3-10.32,10.93-19,22-14.5l.43.74.22-.6Z" transform="translate(-0.88 -0.92)"/><path class="cls-1" d="M1,526c3.8-.68,7.17,1,10.62,2.1,2.21.67,3.42.78,4.68-1.61,3.35-6.33,8.43-9.11,15.73-6.84,1.52.47,3.31.13,5,.11,3.72,0,6.39,1.57,7.82,5,2.12,5.12,5.51,9.4,8.66,13.88,1.64,2.34,3.45,2.92,5.92,2a49.42,49.42,0,0,0,5-2.21A11.25,11.25,0,0,1,81,547.3c1.39,12.21,10.33,19.16,22.05,16.45,5.34-1.24,10.76-1.66,16.11-2.61,7.38-1.32,11.41,2.74,11.86,11,.42,7.66-1.48,15.21-.81,22.91.4,4.6,1.62,8.22,5.9,10.62,3.76,2.11,7.26,4.67,10.83,7.1,5,3.4,6.19,7.91,4.08,12.88-1.57,3.7-5.6,1.5-7.6,3.9.19.29.36.91.74,1.06,5.62,2.35,11.42,4.41,10.43,12.45-.15,1.23,1.15,2.67,1.82,4,1.22,2.43,2.63,2.8,4.38.43a10.45,10.45,0,0,1,2.62-2.93c12.27-7.19,14.41-24.46,4.37-35.9-11.46-13.07-9.36-31.16,9-40.1a109.41,109.41,0,0,0,18.71-11.18A15.87,15.87,0,0,0,201.93,545c.73-11.6.41-23.22.07-34.83-.21-7.28-4.71-11.71-10.89-14-12.9-4.82-13.41-14.27-7.09-24.06,3.94-6.11,7.66-12.38,11.9-18.27,1.9-2.66,1.39-4.55-.33-6.58a33.94,33.94,0,0,0-4.91-5c-4.69-3.61-4.56-8.11-2.66-12.95a45.94,45.94,0,0,1,2.59-4.77c4.79-8.83,5.93-6.58-1.1-15.72-.91-1.19-1.87-2.35-2.83-3.49-6-7.08-6.06-8.09-1.45-16.19a15.17,15.17,0,0,0,.91-2.29c2.77-7.66,3.39-8,11.1-5.62a40,40,0,0,1,19.54,13.07c1.73,2.09,2.84,2.71,5.3.35,6.29-6.06,6.58-5.88,14.23-2.08,1,.52,2.13.94,3.13,1.52,4.94,2.83,9.41,3.16,14.49-.49,6.39-4.59,9.16-3.62,13.26,3a27.36,27.36,0,0,0,4,5.07,15.93,15.93,0,0,1,5,10.46c.62,8.13,10.85,13.7,18.21,10.23.9-.42,1.77-.91,2.66-1.34,6.39-3.13,8.1-2.85,12.9,2.41a60.28,60.28,0,0,1,5.33,6.51,5.21,5.21,0,0,1-.29,6.48c-5.67,7.06-4.89,14.57-.79,21.68,2.43,4.23,1.39,6.66-1.88,9.19-2.14,1.66-4.08,3.1-2.51,6.54,1.13,2.49-2.48,3.65-3,5.92-1.73.78-3.24,1.75-3.68,4.08,2.58-.13,3.26-2,4.49-3.16a64.49,64.49,0,0,1,5.23-3.8c4.06-2.42,7.86-1.09,9.3,3.5,1.53,4.92,4.06,7.42,9.68,6.71,6-.77,12.18.64,18.16-1.87,3.15-1.32,5.46-3.41,5.72-6.27.52-5.73,3.66-10.24,5.92-15.13,2.47-5.32,3.1-11.06,4.25-16.64,1-4.79,3.22-6.1,8.14-5.94,6.71.22,10.55,3.1,11.9,9.4,1.68,7.83,7.53,9,13.82,8.2s10.09,6.07,9.14,10.85c-.32,1.63-.53,3.28-.95,4.87-1.72,6.58-2.18,13.75-.44,19.77,2.14,7.43,6.74,14.13,6,22.43-.06.64,1.24,1.49,2,2.09,3.25,2.5,3.95,5.85,3.76,9.74-.8,16.28-.75,16.27,12.93,25.4,4.1,2.74,7.8,6.16,13.44,5.26,1.72-.27,3.39,1.23,4.61,2.64,3.06,3.5,6.12,7,9.06,10.6,1.35,1.67,2.77,2.76,5,2.51a31.4,31.4,0,0,1,4,0c8,.18,10.88,2.37,12.6,10.25.61,2.81,1.68,3.92,4.61,3.79,10.39-.47,20-1.51,27.29-11,6.3-8.18,15.63-5.85,19.54,3.85,2.56,6.33-1.16,11.05-5,15.07-5,5.26-10.82,9.78-14.86,16-.73,1.12-1.72,2.07-1.58,3.54.72,7.34-3.78,12.12-8.43,16.67-2.45,2.38-3.5,4.58-3.11,8.25.51,4.84.22,9.78-3.3,14.09-4.09,5-8.79,6.53-15,5-9.1-2.28-18.1-2.76-26,3.59A44,44,0,0,0,445,676.29c-5.32,9-12.73,12.62-23.18,11.87-8.25-.6-16.53,0-24.58-2.82-2.54-.88-5.6-.27-8.43-.28-4.64,0-9.3.39-13.86-1-1.4-.43-3.15-.95-4.38,0-5.32,4.11-11,3.36-16.45.9-9.73-4.41-15,1.36-20.11,8q-164.34,0-328.67.08c-3.37,0-4.46-.41-4.45-4.24C1.06,634.56,1,580.28,1,526Z" transform="translate(-0.88 -0.92)"/><path class="cls-1" d="M1,169a53.77,53.77,0,0,1,11.7,3.83c7.42,3.48,18.41,4.17,23.17-5.08,1-1.84,3.38-2.66,3.94-4.91-.92-1.23-2.19-.68-3.26-.87a2.73,2.73,0,0,1-2.49-2.67c-.08-1.63,1.6-1.34,2.47-2,1.64-1.17,5.15,1.3,5.23-2,.08-2.78-2.13-5.15-4.49-6.76-2-1.39-4.33-2.39-6.49-3.61-5.56-3.15-6.43-5.77-2.34-10.55,2.35-2.74,1.76-4.66.2-6.94-2.14-3.13-4.3-6.13-7.71-8.26-5.78-3.6-6.81-8-4.69-14.61C21.87,87.2,30.36,71.35,40.55,56.12c8-11.91,21.79-15.47,33.74-4.34,4.16,3.87,9.59,5.84,14,9.27,1.93,1.49,2.4,0,3.5-.95,4.67-4.13,7.52-4.28,12.72-.88,3.65,2.39,8.69.62,10.48-3.54a30,30,0,0,1,3.12-5.63c1-1.31,2.44-2.62,4.25-1.83a4.7,4.7,0,0,1,2.6,4c1.06,7.74,1.66,6.33,9,9.24,6.64,2.62,12,2.41,18.51.8,4.12-1,7.15-1.74,7.39-6.52a2.65,2.65,0,0,1,3-2.63c3,.19,6.56-1.53,8.85,1.61,1.09,1.49,2.34,2.77,3.5,4.17,1.57,1.89,3,2.37,5.58,1.45C193,56,214.74,62.54,220.46,80.83c1.83,5.87-.46,8.69-7.92,9.49A2.74,2.74,0,0,0,215.82,93c1.33-.08,2.68.11,4,0,10-1.12,13.9,4,9.9,14.77-.22.58-.4,1.18-.66,2a11,11,0,0,0,2.18.28c10.06-.89,13.53,3.28,16.6,12.2,1.11,3.21,2.45,2.73,4,1.3,5.33-4.78,10.85-4.43,17-1.79a33,33,0,0,0,10.64,2.19c3.8.26,7.53-.16,10.25,3.4,3.17,4.15,5.9,8.43,6.21,13.82.08,1.33-.12,2.68,0,4,.4,3.51,1.95,6,5.94,5.89a41.14,41.14,0,0,0,8.38-.71c8.21-1.93,14.56,2.43,15.8,10.61.22,1.43.43,2,1.88,2.19s2.91.71,4.39.87c11.81,1.26,16.17,7.67,13.14,19.65-.45,1.78.77,1.82,1.62,2.46,2.26,1.69,4.39,3.4,5.25,6.38,1.51,5.26.06,8.18-5.25,9.73a37.91,37.91,0,0,1-4.34.88c-8.74,1.47-9.57,2.53-8.83,11.31.63,7.57,3.58,10.45,10.94,10.63a60.53,60.53,0,0,0,7,0c2.8-.26,5.27.74,6.42,3,3,5.78,7.85,4.38,12.38,3.57,5.35-1,6.13.51,8.53,5.31s5.72,9.1,6,14.74c3.65-.7,4.83,6.27,9.88,2.75,2.27-1.59,5.63-.22,7,3.52,1.07,2.94.26,5.95,1.09,8.76,1.49.69,1.89-.48,2.16-1.35,1.47-4.73,5.07-5.06,9.12-4.58s5.12,3.16,5.55,6.92c.57,5,2.26,9.79,1,15.07-1,4.25-2.64,5.38-6.51,3.51-2.07-1-4.23-1.82-6.52-2.79-.34,5.61-2,10.83-2.32,16.35-.18,3.22-.66,7.23-4.4,8.91-4,1.81-5.12-2.68-7.9-4.16-1,2.59-.35,4.72.82,7,1.4,2.69,4.08,6,1.33,8.55-2.56,2.38-6.54,1.38-9.85.23a17.43,17.43,0,0,1-9.78-8.05c-1.46-2.59-3.19-4.14-6.57-4.34s-7.19-1.47-6.15-6.41c.29-1.38-.45-1.24-1.17-1.48-.47-.15-.91-.41-1.38-.55-2.31-.66-5.17-1.67-5.26-3.94s3.37-1.83,6.08-3.47c-5.83.8-8.24-1.76-9.7-6-.95-2.74-8-4.28-10.2-2.49a2.19,2.19,0,0,0-.6,2.26,36.39,36.39,0,0,0,1,3.83c.52,1.85,1.72,3.65-.29,5.46-2.24,2-4.19.45-5.91-.53-2.48-1.41-4.53-2.23-6.1.8,4.85,4.61,11,8.29,11.33,16.1.08,1.77,1.43,1.57,2.55,1.56,3.32-.05,6.65-.11,10-.29,2.74-.14,4.25,1.09,3.9,3.76a11.5,11.5,0,0,0,4.64,11.23,25.48,25.48,0,0,1,5.3,6.57c2.79,4.38,3.88,10.25,11.1,10.34,2.19,0,4.11,3,3.4,5.87s-1.16,6-4.94,6.68c-2.12.36-4.23.79-6.43,1.2,1.38,8.28,3.79,16.4,1.54,24.9a7.36,7.36,0,0,1-4.62,5.38c-2.35.77-4.05-1.55-5.45-3.46a37.69,37.69,0,0,1-5.08-10.65c-.82-2.45-2.07-4-5-3.55-3.22.47-6.36-2-10-.32.9,2.32,3.15,2.78,4.87,3.76,7.47,4.29,8.74,6.75,7.41,15.09-.27,1.68.06,2.44,1.91,2.54,3.77.18,5.61,2.64,6.09,6.05.38,2.67-1.54,4.59-3.58,5.51-3,1.37-5.85.18-8-2.34-1-1.13-1.87-2.31-2.76-3.5-1.75-2.33-3.19-4.77-5.29,0-1.42,3.2-4.33,2.46-5.93.21-3.66-5.1-8.7-5.37-14.12-4.92-5.18.42-10.27-.51-15.38-1.07a12.3,12.3,0,0,1-9.62-7.2c-5.36-11.37-15.54-14.9-26.4-17.69a4.36,4.36,0,0,1-1-.18c-2.41-1.26-7-1-5.69-5.25,1.18-3.79,5.16-2.81,8.25-2.25.95.17,1.82.75,2.93.34-.26-.42-.42-1-.78-1.2-7.56-4.19-14-9.37-16.68-18.07-1.2-3.95-4.11-4.59-7.79-4.46-5.59.19-11.31,1.34-16.76-1.4-1,.86-.49,2.07-.55,3.1-.17,3.3-2.13,3.22-4,1.74a30.81,30.81,0,0,1-6.2-6.45c-2-2.93-2.77-1.81-3.93.46a29.55,29.55,0,0,1-3.15,5.06c-3.57,4.46-5.94,4.7-9.64.39-2.3-2.68-3.36-1.56-4.87.48-5.87,7.93-5.89,7.93-13.2,1.49-3.87-3.39-7.73-6.81-10.13-11.48-1.34-2.61-1.57-4.55,2.2-5.46s9.61-9.25,9.63-13.48c0-3.1,1.08-4.7,4.41-4.46a26.93,26.93,0,0,0,6.89-.73c5-.93,9.65,0,13.78,3.68,5.83,5.25,20.71,5.06,26.69-4,1.56-2.35,2.8-4.86-.41-6.83-2.21-1.36-3.91-3.21-3.19-5.64.86-2.86,3.74-.94,5.67-1.44a8,8,0,0,1,1.49-.14c.13-.28.42-.63.34-.79-3.86-7.67-4.47-10.1,6.79-14.16,8.15-2.94,11.43-8.71,9.56-16.73-1.5-6.37-1.09-12.17,3-17.46,2.25-2.92,1.69-5.14-1.64-6.73-2.83-1.35-5.54-3.05-8.67-3.51-1.6-.24-4.32-2.18-4.51,1.42-.12,2.1-1.18,5.37,3.21,5.17a10.21,10.21,0,0,1,4.75,1.23c3.49,1.73,3.65,5.77.46,8a10.52,10.52,0,0,1-1.77.9c-6,2.62-20-3.92-21.58-10.25a5.29,5.29,0,0,0-2.84-3.83,3.9,3.9,0,0,1-2.33-4.48c.34-2.4,2.66-2.4,4.3-2.54,3.8-.32,7.68.1,11.87-1.63-7.72-7.68-15.77-14.74-24-21.57-1.93-1.59-3.53-.29-4.89.73-2.42,1.8-.85,3.87.12,5.72,2.59,5,1.86,8.75-2.55,10.76-3.89,1.77-8.17.78-12.28,1a1.08,1.08,0,0,1-1.21-1.23,2.53,2.53,0,0,1,2.08-1.87c3.47-1,7.17-1.24,10.51-3.42-2.33-3.15-8.21-1.55-8.78-6.78-.54-5.08,3.89-6.47,6.79-9.34-5.87-3.09-10-7.44-11.85-13.91-1-3.63-4.55-5.66-7.15-8.19a148.56,148.56,0,0,0-16.38-13.76,5.15,5.15,0,0,0-1-.41c-.33.52.06.71.49.85,2.29,4.38,4.39,8.86,6.92,13.09,1.94,3.24,1.56,5.18-2.14,6.34-9.36,2.95-18.13,1.91-25.41-4.88-3.26-3-6-2.83-9.21-.89a36.53,36.53,0,0,0-9.35,7.36c-2.05,2.43-4,2.15-5.62-.17s-3.25-3.12-6.15-1.59c-2.57,1.36-4.94-.89-6.43-2.55-3.73-4.16-8.18-5.28-13.45-4.81a46.35,46.35,0,0,1-8,0c-3.49-.32-6.22.72-8.14,3.66-1.27,1.95-2.47,3.16-4.49.67a1.38,1.38,0,0,0-2.4.53c-1.62,4.24-5.87,3.92-9.14,5-2.71.85-5.19-.4-6.15-3.55a15,15,0,0,0-4.51-7.57c-2.09-1.76-2-4.12-.24-6.16a24.64,24.64,0,0,0,4-6.63c-6.51.13-12.33,2.78-18.52,2.22-1.41-.13-1.62.79-1.06,1.94.29.59.57,1.19.87,1.78,4,7.77,4,7.77-3,13.17-5.08,3.89-6.09,8-2.36,13,2.49,3.32,2.09,5.31-1,7.77-3.89,3.14-4.23,6.91-1.54,11.29s.62,8.12-4.47,7.83-7.89,1.94-10.07,6.05a47.59,47.59,0,0,1-5,8c-3.57,4.36-1.07,8.11.76,11.94.95,2,2.95,1.39,4.44.94,1.8-.54,3.88-.95,3.95-3.73s-.76-5.56-.95-8.33c-.17-2.39-.69-5.09,2.18-6.61s6-1.94,9,0A10.24,10.24,0,0,1,44,236.25c1.59,9.6,8.37,14.62,16.48,18.42,2.26,1.06,3.77-.07,5.15-1.74,3.46-4.18,3.51-9.16,3.31-14.18-.09-2.33-.36-4.62,1.28-6.66s3.56-3.17,5.53-1.5c2.52,2.13,4.26,1.47,5.81-.7,1.69-2.37,1.37-4.76-1-6.57-2.86-2.2-3.34-4.73-1.58-7.85a4.38,4.38,0,0,1,5-2.41,3.86,3.86,0,0,0,4.52-2.27c.87-1.75-.91-2.63-1.83-3.67-5.23-5.94-5.26-7,.22-12.67.78-.82,1.44-1.57.87-2.54-2.46-4.24,1.46-5.46,3.65-6.66,5.11-2.79,10.85-2.7,16.53-2.12a2.8,2.8,0,0,1,1.82.71c3.83,5.32,9.19,6.31,15.34,6.24,3.52,0,6,2.18,8.15,5.55,1.78,2.82,5.66,4.26,8.36,6.59,1.82,1.57,5,2.51,3.57,6.19-1.3,3.3-3.3,5.29-7.62,4.54,1.14,2.82,3.25,4.2,4.86,5.91,2,2.16,2.24,4.51.71,6.77-1.69,2.5-4.12,1.62-6.18.41-2.53-1.48-4.9-3.22-7.49-4.94-1.32,4.31-.08,7.31,2.94,10,4.87,4.29,9.6,8.73,14.3,13.2,3,2.89,4.19,6,1.85,10.19s-3.4,9.29-4.5,14.15c-1.27,5.65-3.85,6.75-9,4.12-.74-.37-1.41-.89-2.13-1.3-3.56-2-6.71-3.2-9,1.94-1.13,2.47-3.57,4.35-5.44,6.47-3.92,4.45-7.51,4.59-11-.32-2.78-4-4.07-2.76-5.55.63a28.68,28.68,0,0,0-1.69,4.13c-1.39,5.55-2.23,6.09-7.68,4.57-9.46-2.65-11.26-5.25-10.72-15.52,0-.8.36-1.89-.67-2.14-3-.72-5.17.91-6.85,3.09-1.42,1.84-4.93,3.28-2,6.43,1.58,1.69,3.53,3,5.17,4.69,2.39,2.42,3.6,5.57,2.3,8.68A6.68,6.68,0,0,1,72.37,298c-3.75-.54-5.56,1.11-6.38,4.51a11.06,11.06,0,0,1-1.25,3.22c-2.22,3.63-4,6.9,2.44,8,2.6.44,2.47,2.94,1.21,4.26-5.64,5.95-8.33,15.57-19.39,15-3.35-.19-3,3.74-2.74,6.28.08,1,1.13,2,1.62,3,1.36,2.92,4.22,6.56,1,8.92s-7.7,1.55-11.36-.39c-2.67-1.42-4.77-5.06-8.2-3.47-4.3,2-8.11,5.51-9,10.13A51.32,51.32,0,0,1,9.7,379.53C6.16,384,4.1,389.3,1,394V278c2.91-2.51,5.52-3.71,9.61-1.37,4.87,2.77,9.23-.36,9.37-6,.11-4.64,0-9.28.05-13.91,0-2.66-.2-5.35-3.39-5.61s-6.08-.44-8.13,3.55C5.77,260,3.79,265.7,1,271ZM317.59,359.2c3.65,7.65,10.92,6.74,17.18,8C330.46,361.7,324.53,359.71,317.59,359.2Z" transform="translate(-0.88 -0.92)"/><path class="cls-1" d="M554,693c-.3-3,1.13-5.06,3.64-6.48,3-1.71,6-3.56,9.12-5,2.45-1.15,4.84-1.88,3.32-5.45a2.87,2.87,0,0,1,1.12-3.58c5.31-2.91,10.2-7.32,16.57-7.22,4.92.09,4.84-2.17,3.72-5.4-1.26-3.58-2.89-7-4.31-10.56-2.91-7.25-1-10,6.73-10,7.51,0,13.94,2.27,18.22,8.93,1.39,2.16,3.58,2.82,6,2.82s5-.21,7.49,0a6.41,6.41,0,0,0,6.69-3.18c5.71-9.17,13.78-9.43,24.07-4,1.75.92,3,1.35,4.8-.26A59.22,59.22,0,0,1,687,630.39a12.58,12.58,0,0,0,7.94-5.39c4.34-6.41,10.27-9.63,18.15-9.21,5.46.29,10.93.22,16.36,1.14,2.78.48,3.92,1.82,3.44,4.36s-.89,5.4-2.25,7.54c-2.31,3.62-.6,5.07,2.44,6.12,1.82.63,3.55,1.48,4.22,3.23,1.39,3.64,3,6.27,7.05,8.23,3.36,1.64,2.16,6.46.88,9.94-.49,1.33-1.49,2.48-2.75,4.51,9.4-.66,16.41,3.2,22.8,8.77,2.13,1.86,4.56,2,7.12-.29,4.17-3.67,8.36-4.1,13.07,0s18,3.67,23.84-.19c9.77-6.49,17.15-6.85,25.27-1.25,7.13,4.93,7.35,7,1.09,13.08,9.26-.27,17.38,1.07,19.33,12Z" transform="translate(-0.88 -0.92)"/><path class="cls-1" d="M174,1c1,5.35-3,7.68-6.37,10.22-2.21,1.66-3.84,2.87-2.7,6.28A8.13,8.13,0,0,1,162.24,27c-2,1.54-.77,4.4-2.65,6.23-3.84,3.75-12.9,5.19-17,1.75-2.55-2.11-4.63-2.07-7.17-.78-8.25,4.17-16.78,4.55-25.58,2.09a10.54,10.54,0,0,0-7.23.93c-6.18,2.75-12.4,5.4-18.63,8-4.42,1.88-7.81.53-11-3-3.3-3.72-7.15-5.88-12.85-5.56-8.2.45-15.75,3.18-23.54,4.57-7.16,1.27-16.43,2.88-22.33-5.11-.76-1-1.24-1.33-2.31-.56-4,2.88-5.52-.08-7-3.05-.85-1.73-1.17-4-4-3.47,0-8.17.17-16.34-.09-24.5C.82,1.5,1.52.91,4.5.92Q89.25,1.09,174,1Z" transform="translate(-0.88 -0.92)"/><path class="cls-1" d="M1201,148c-4.15-4.77-8.53-4.9-14-1.72s-11.27-.62-10.89-6.88c.33-5.45-.44-8.64-7.09-8.72-4.26,0-8.08-2.74-10.29-6.92-1.87-3.53-4.24-4.35-8.18-2.5-5.76,2.69-10.81,6.43-16.25,9.57-8.82,5.07-13.81.7-13.63-8.23.17-8.32,3.73-13.86,10.29-18,4.44-2.83,9.58-1.15,14.35-1.5,6.61-.48,7.54-.5,9.18-6.77.92-3.48,2.26-6.75,5.74-8.29,10.44-4.65,21-5.54,31.18.51,3.4,2,5.53,6,9.58,7.49Z" transform="translate(-0.88 -0.92)"/><path class="cls-1" d="M917.13,535.25c-2-.42-2.69,0-3.43.42-5.07,3.13-4,2.32-7-2-4.74-6.74.54-8.54,3.87-11.88,6.86-6.86,14-13.57,24-15.05,5.57-.83,8-3.37,9.76-8.6a19,19,0,0,1,13.44-12.93c1.94-.52,2.41-1.22,2.31-2.94-.07-1.32-.14-2.68.84-3.79,2.5-2.84,5.84-5.76-1.75-5.79-1.62,0-1.21-2.16-.05-3.11a125.57,125.57,0,0,1,11.36-8.9c3-1.93,8.59,2.47,9.58,7.09.62,2.9,1.2,5.83,2,8.68,1,3.56,3.47,4.61,6.34,2.29,4.26-3.46,7.06-1.18,8.67,2.36,1.74,3.84,3.22,2.09,4.78.44,4.39-4.62,9-8.79,15.12-11.11,5.47-2.08,7.6-1.2,9.18,4.38.79,2.78,5.69,5.51,8.8,4.82,5-1.12,10-1.89,15.13-.36s6.71,5,4,9.52a11.8,11.8,0,0,0-1.77,8.41c1,6,.32,11.27-6,14.23-1.1.51-1.81,1.85-3.41,3.57a57.32,57.32,0,0,0,6.74-1.39c3.52-1.2,6.43-.85,8.86,2.25,1.08,1.37,2,2.58,4.47,1.23,7.1-4,15.75,1.25,16.17,9.43.07,1.33.12,2.65.2,4.46a86.26,86.26,0,0,0,15.59-7.78c3-1.85,5.52-2.55,9.24-1.41,8.14,2.51,19.38-2.51,24.9-10.57,2.64-3.85,5.87-6,10.62-6.25,3.47-.17,6.75.86,8,3.68a7,7,0,0,1-3,9.1c-1.84,1-.84,1.41-.33,2.37,2.9,5.42,2.63,6.67-2.47,9.67A38.69,38.69,0,0,1,1123,535a24,24,0,0,0-12.58,3.67c-7.13,4.49-14.62,8.39-22,12.51-3.19,1.78-3.37,4.39-1.41,6.89,3.78,4.83,2.36,6.77-2.68,10.24-4.62,3.18-11.25,4.86-12.76,11.92-.62,2.89-3.31,4.47-6.49,4.55-1.35,0-2.69,0-3.08,1.78s-.17,3.32,1.44,4.41c2.34,1.58,4.61,3,7.69,3.15,4,.15,4.43,1.75,2.13,5.07-1.79,2.58-4.45,3.23-7.24,3.84-5.35,1.16-10.54,2.81-15.08,6-1.89,1.31-3.84,2.46-1.4,5.44,1.4,1.72.83,4.52-1,6.45-.83.9-1.94,1.6-3.09.82-1.92-1.31-3.89-2.68-3.53-5.52a11.62,11.62,0,0,0,0-2.5,2.68,2.68,0,0,0-2.78-2.37c-1.77-.06-1.09,1.7-1.11,2.7-.09,3.83,0,7.66,0,11.49-.08,4.82-1.19,9.18-5.44,12.19a8.43,8.43,0,0,0-2.74,2.87c-3.51,7.17-9.56,7.56-16.12,5.9-2.41-.61-4.2.22-6.18,1-8.76,3.26-13.13,2.17-17-6.25-4-8.83-11.79-9.77-19.58-11-9.68-1.57-18.7.93-27,5.68-2.21,1.25-3.8,3.68-5.46,5.75-2,2.43-3.94,3.21-6,.41-2.6-3.57-5-3.76-7.85-.28-2.7,3.32-5.15,2.09-7.22-.79-4.87-6.79-5-11.32-.47-18.35a11.66,11.66,0,0,0-3.83-16.36c-3.92-2.39-5.39-5.23-5.19-9.76.27-6-1.67-7.7-7.64-8.44-2.87-.35-5.65-1.29-6.91-4.14-1.14-2.58,1-4.26,2.38-6.09s3.09-3.71,3.42-6.44c.39-3.22,3.11-4.34,6-5.19,4.86-1.44,5.32-2.71,2-6.19-3.19-3.32-2.13-5.53,1.3-7.42,1.48-.82,3.56-1.59,3.38-3.3C911.21,543.76,913.35,539.4,917.13,535.25Z" transform="translate(-0.88 -0.92)"/><path class="cls-1" d="M946.76,323.51a2.77,2.77,0,0,0-.56-.33c-9.34-2.1-10.91-5.76-4.58-13,4.26-4.89,2.65-10.71,4.26-16,.68-2.21,1.11-4.49,2.31-6.5,3.53-5.87,8.74-6.33,12.65-.72,1.86,2.66,3.28,3.49,6.45,2.3,2.05-.77,4.61-.32,6.93-.26,6.19.18,12.28.2,17.57-3.9,3.62-2.81,6,.56,8.79,2.09,1.6.89,2.5,3.89,4.87,2.32a7.15,7.15,0,0,0,3.43-6.79c-.43-4.11-.81-8.24-1.53-12.31-1.47-8.4,1.64-12.21,10.24-12.09a10.5,10.5,0,0,0,5.57-1.56c3.85-2.16,7.68-3.95,12.62-3.19,6.13.94,8.42,5.52,10.81,9.82,3.58,6.44,3.4,14.07,5.78,21.5,3.89-3.54,7.84-6.75,11.34-10.4,5-5.23,9.29-5.69,15.6-1.88,5.18,3.14,7.94,8.42,12.08,12.46a21.86,21.86,0,0,0,11.67,6c8.34,1.61,13.35,7.65,17.35,14.46,1.83,3.12-.64,7.12-5.13,9.38-3.69,1.86-7.45,3.6-11.2,5.32-1.53.7-2.37,1.44-1.83,3.39,2.37,8.58.76,10.87-9.19,11.24-2.38.09-3.92.34-5.39,2.37a13.39,13.39,0,0,1-12.43,5.91,67.91,67.91,0,0,0-7,0c-3.22.11-5.25.77-5.43,5-.28,6.34-5.14,9.39-12.06,8.7a12.24,12.24,0,0,1-1.45-.35c-8.54-1.95-15.58-.35-20,8.05-3.63,6.87-9,10.65-17.25,9.61-3.22-.41-6.58.34-9.9-.2-2.62-.42-4.49-1.52-4.29-4.44.53-7.85-4.15-11-10.87-12.7-3.39-.83-6.93-1.7-7.05-6.37,0-1.62-1.65-1.22-2.66-1.63-5-2.07-10.22-3.94-14.4-7.67-2.74-2.45-6.06-1.52-9-1-3.83.63-7.74,2-10.56-1.66-3-3.93-.11-7.53,1.44-11.1C945.28,326.07,946.07,324.81,946.76,323.51Z" transform="translate(-0.88 -0.92)"/><path class="cls-1" d="M83.58,362.85c-1.59,2.73-1.27,6.36-5,6.12-3.51-.22-4.37-3.09-4.92-6s-1.17-5.83-1.59-8.76c-.71-5-2.4-5.92-6.52-3.16-2,1.31-3.45.85-5-.26-2.08-1.49-3.9-3.27-3.48-6.15A4.24,4.24,0,0,1,61,340.81a28.41,28.41,0,0,0,3.43-.65c6.56-1.76,6.84-2.37,3.86-8.2-2.67-5.23-1.51-7.89,4.2-9.67,6-1.87,6.07-2.18,4.79-8.33-.48-2.32-2.3-4.68-.72-7.18,2.83-4.48,4.76-9.72,8.72-13.23,2.65-2.34,5.32.19,7.06,2.54a102,102,0,0,1,6.32,9.52,6.43,6.43,0,0,0,7,3.46c6.83-.95,12,1.94,16,7.08,6.24,8,15.73,12.17,22.55,19.47.88.94,2.77.91,4.17,1.4,3.69,1.27,7.61,2,8.24,7.16.69,5.7-1.44,10.16-5.2,13.86-3.3,3.25-7.31,1.24-10.71-.07-3.86-1.49-7.06-4.3-10.3-6.92-5.57-4.5-9.7-4.24-14.06,1.23-1.9,2.38-4.46,3.06-7,3.3-3.61.35-5.55,2.24-7.34,5.07-6.26,9.9-7.45,10.06-16.88,3A9.33,9.33,0,0,0,83.58,362.85Z" transform="translate(-0.88 -0.92)"/><path class="cls-1" d="M870.53,361.17a20.83,20.83,0,0,0-2.4-.37c-2.74,0-6.5,1.38-7.66-1.75-1.59-4.26-2.62-9.2.15-13.46,1.72-2.63,4.73-2.52,6.94-.47a4.24,4.24,0,0,0,4.34,1.11c6.39-1.48,12.78-3,19.15-4.57,4.45-1.12,6.62-4.8,8.75-8.37,2.58-4.31,6.51-6.38,11.23-5.87,6.25.67,8.65,5.52,6.88,13.08,2.19.85,4.78.41,6.88,1.76,1.64,1.05,3.09,2.31,3,4.26a4.71,4.71,0,0,1-3.16,4.62c-3.93,1.36-5,3.5-2,7,2.31,2.65,2.2,5.33-.3,8-2.09,2.21-3.58,4.36.87,6a3.86,3.86,0,0,1,2.12,5c-.72,2.22-1.47,4.49-4.29,4.92-5.94.89-11.35,1.48-16-4.29-3.95-4.9-14.44-3.52-19.93,1.7-3.13,3-6.1,6.13-9.09,9.26-2.18,2.27-4.93,3.71-7.38,1.38-2.72-2.59-1.76-5.68.91-8.2,4.57-4.31,4.59-6.65.18-10.55C866.25,368.25,866.31,366.92,870.53,361.17Z" transform="translate(-0.88 -0.92)"/><path class="cls-1" d="M794.32,323.21c5-.9,9.33.84,13.82.79,2.21,0,3.13,1.41,4,3.15,2.43,5,6.59,7.05,12.08,6.88,5.77-.18,11.42-.84,15.54,5.26,1.48,2.19,6,.49,9.1.57,1.37,0,3.31-.82,3.93,1a4,4,0,0,1-2,4.66A65.23,65.23,0,0,1,840.23,351c-4.58,1.73-9.08,2.1-13.48-1.51-6.36-5.21-13.8-6.61-21.9-4.53-5.86,1.51-7.77-.12-7.85-6.16-.08-5.56-.45-5.76-5.33-2.94a29.18,29.18,0,0,1-2.59,1.48c-2,.89-4.28,3.23-6.07.4-1.5-2.37-2.84-5.19-.88-8.28C785.11,324.78,788.38,320.91,794.32,323.21Z" transform="translate(-0.88 -0.92)"/><path class="cls-1" d="M104.91,386c-2.1-9.3,11.68-15.73,18.66-12.24,2.2,1.11,4.59,1.84,6.49,3.55a2.46,2.46,0,0,0,3.2.37c1-.74.44-1.71.09-2.68-.5-1.38-1.1-3.15.85-3.78s2.93,1.07,3.72,2.54c3.57,6.62.88,12.69-6.52,14.18-6.06,1.23-11,3.51-12.27,10.32a5.26,5.26,0,0,1-4.23,4.42c-2.59.48-4.29-1.38-5.64-3.33C106.37,395.19,104.34,390.71,104.91,386Z" transform="translate(-0.88 -0.92)"/><path class="cls-1" d="M127.2,430c5.6.1,13.4,6.13,14.57,10.8.93,3.74-1.08,6-4.23,7.46-3.6,1.63-4.52,3.55-1.45,6.63s2.12,5.79-1.34,8.05c-3.78,2.47-7.64,3.76-12.14,2.1-3.24-1.2-4.41-3.29-2.09-6,4.19-4.8,3-9.37,0-14-2.37-3.78-2-7.58-.17-11.32C121.93,430.68,124.88,430.1,127.2,430Z" transform="translate(-0.88 -0.92)"/><path class="cls-1" d="M385.58,396a13.67,13.67,0,0,1,9.82,2.14c2.23,1.47,4.5.65,6.77.73,1.52.05,3.05,0,4,1.44,1.27,1.81-.51,2.58-1.3,3.72-1.67,2.37-1.3,4.22,1.42,5.58,1.91.94,4.39,2,3,4.74-1.85,3.56-4.19,6.94-8.92,6.83-3-.08-4.51-1.67-4.51-4.76s-1.71-4-4.6-3.47c-4,.78-7-.7-7.95-4.78-.57-2.37-2.79-2.08-4-3.31-1.69-1.71-4.45-2.8-3.5-6s3.57-3,6.11-2.91C382.92,396,383.92,396,385.58,396Z" transform="translate(-0.88 -0.92)"/><path class="cls-1" d="M160.94,415.92c-.88-3.82-1.79-8.51-3.07-13.1-1.85-6.63-1.23-12.7,2.75-18.5a5.06,5.06,0,0,1,5-2.33,7.47,7.47,0,0,1,5.9,3.2,1.52,1.52,0,0,1-.59,2.5c-4.67,1.51-3,4.8-2.23,7.73a32.2,32.2,0,0,0,2.46,6.47c3.19,6.06,1.45,14.5-4,18.57-1.53,1.15-3.17,2.2-5,1.19S160.09,418.79,160.94,415.92Z" transform="translate(-0.88 -0.92)"/><path class="cls-1" d="M181.78,216a27.1,27.1,0,0,1-3,0c-1.89-.22-4.51.84-5.43-1.37-1-2.52,1.92-3.05,3.29-4.25,2.39-2.11,1.62-3.66-.66-5.07-2.9-1.79-6.07-4-4.81-7.67s4.94-5.1,9-4.72c1.32.13,2.66,0,4,.1,1.91.16,4.5-.72,5.41,1.48,1.12,2.72-2.06,2.32-3.28,3.33-2,1.66-1.24,3.28.09,4.69s2.85,2.28,4.17,3.52c2.29,2.17,1.8,4.86,1,7.4s-2.93,2.85-5.26,2.7c-1.49-.09-3,0-4.48,0Z" transform="translate(-0.88 -0.92)"/></svg>