<svg id="Camada_10_Imagem" data-name="Camada 10 Imagem" xmlns="http://www.w3.org/2000/svg" viewBox="0 0 1479.36 692.16"><defs><style>.cls-1{fill:#f8b262;}</style></defs><path class="cls-1" d="M1012.8,692.4H375.12a3.08,3.08,0,0,1,.12-1.65,70.14,70.14,0,0,1,5.17-12.1c2.32-4,4.91-7.75,7.28-11.69a73.14,73.14,0,0,1,14.11-16.51,63,63,0,0,1,5.75-4.7c3.85-2.7,6.26-6.4,8.15-10.59a21.88,21.88,0,0,1,6.26-8.51c2.92-2.29,5.79-4.65,8.83-6.79a44.76,44.76,0,0,0,9.65-9.44c3.69-4.81,7.05-9.92,11.18-14.35,4.88-5.23,9.2-10.94,14.37-15.91a35.52,35.52,0,0,1,5.36-4.75c3.88-2.46,7.83-4.79,11.92-6.9a35,35,0,0,1,12.22-4c6-.69,11.47.45,16.19,4.34,3.12,2.57,6.29,5.08,9.22,7.84a18.35,18.35,0,0,0,9.87,4.93,23.89,23.89,0,0,0,12.61-.8c1.84-.67,3.68-1.33,5.56-1.9,3.86-1.17,7.81-1.9,11.78-.7a41,41,0,0,1,7.9,3.14,62.09,62.09,0,0,0,17.64,6,136.66,136.66,0,0,0,26.14,3.11c6,.06,11.94.37,17.85-.46,8.6-1.19,16.94-3.67,25.35-5.73s17-4.76,25.52-7a58.47,58.47,0,0,1,18.61-2.22c6.3.39,12.57.91,18.83,1.8a206.09,206.09,0,0,1,30,6.62q12.82,3.81,25.89,6.6a82.43,82.43,0,0,0,23,1.18A122.6,122.6,0,0,0,823,587c4.76-1.36,9.59-2.76,14.71-1.7,5.71,1.18,11.57,1.49,17.3,2.56a84.64,84.64,0,0,0,19.89,1.74,40.42,40.42,0,0,0,7.28-.6c4.66-1.1,9.3-2.3,13.85-3.85a18.86,18.86,0,0,1,2.87-.83,240.11,240.11,0,0,1,29.31-2.85c6.7-.33,13.41-.09,20.09-1.13a45.12,45.12,0,0,0,18.5-7.14,74.18,74.18,0,0,0,6.1-5A27.25,27.25,0,0,1,983.24,563a7.43,7.43,0,0,1,3.21-.17c4.35.73,8.63,1.6,12.22,4.49,4.15,3.33,8.3,6.64,11.53,10.92a12.09,12.09,0,0,1,2.62,7.42Q1012.79,639,1012.8,692.4Z"/></svg>